<?xml version="1.0" encoding="utf-8"?>
<!-- Generator: Adobe Illustrator 21.1.0, SVG Export Plug-In . SVG Version: 6.00 Build 0)  -->
<svg version="1.1" id="图层_1" xmlns="http://www.w3.org/2000/svg" xmlns:xlink="http://www.w3.org/1999/xlink" x="0px" y="0px"
	 viewBox="0 0 1024 1024" style="enable-background:new 0 0 1024 1024;" xml:space="preserve">
<g>
	<path d="M605,642.9c-22.8,0-43.2-11.5-56.8-29.5c-2.6-6.8-6.2-13.2-10.7-19c-0.2-0.4-0.3-0.8-0.5-1.2h-0.5
		c-12-14.8-29.4-24.1-48.8-24.1c-33.5,0-61.1,27.7-65.2,63.6c-6,13.7-18.7,23.2-33.4,23.2c-13.3,0-14-7.7-20.5-19.4L272.2,765h467.7
		L638.4,627.3C626.2,637.1,621.2,642.9,605,642.9z"/>
	<path d="M895.9,692.5L643.4,331.8V195h2.1c19.1,0,35.6-10.7,44.1-26.4c3.8-7.1,6-15.2,6-23.8c0-27.5-22.3-49.8-49.8-49.8h-0.3h-280
		h-0.2c-27.5,0-49.8,22.3-49.8,49.8c0,0.9,0,1.8,0.1,2.7c1.3,26.4,23.2,47.5,49.9,47.5h4.2v136.8L105.2,709.6
		c-2.3,3.3-4.1,7-5.4,10.9C86.9,747.4,82,780,82,811.8c0,17,2.8,33.9,8.3,50c0.8,3.5,1.8,7,3,10.4l7.7,15.8
		c6.4,10,14.9,18.4,24.9,24.8c7.5,7.6,17.7,11.9,28.4,11.9h6.3c2.6,0.3,5.2,0.4,7.9,0.4c2.7,0,5.3-0.1,7.9-0.4H838
		c2.6,0.3,5.2,0.4,7.8,0.4c2.7,0,5.3-0.1,7.9-0.4h3.1c8,0,15.8-2.4,22.4-6.9c14-6.4,25.8-16.8,34.1-29.8l7.8-15.7
		c1.2-3.4,2.2-6.8,3-10.4c5.5-16.1,8.3-33,8.3-50C932.4,767.8,923,722.2,895.9,692.5z M802.6,845H211.7c-24.3-9-29.8-30.6-29.8-57.2
		c0-10.1,4.3-21.4,7.2-30.5h-0.2c0.5-0.7,1-1.3,1.5-2l270-383.2c2.6-3.8,4.5-8.1,5.7-12.5c2.7-5.6,4.1-11.7,4.1-17.9V195.4l40.3-0.4
		h33.4v145.9c0,6.2,1.4,12.3,4.1,17.9c1.2,4.5,3.1,8.7,5.7,12.5l269,384c1,1.4,2.1,2.8,3.2,4.1c2.9,8.7,6.5,19,6.5,28.4
		C832.4,814.4,826.9,836,802.6,845z"/>
</g>
</svg>
