<?xml version="1.0" encoding="utf-8"?>
<!-- Generator: Adobe Illustrator 21.1.0, SVG Export Plug-In . SVG Version: 6.00 Build 0)  -->
<svg version="1.1" id="图层_1" xmlns="http://www.w3.org/2000/svg" xmlns:xlink="http://www.w3.org/1999/xlink" x="0px" y="0px"
	 viewBox="0 0 1024 1024" style="enable-background:new 0 0 1024 1024;" xml:space="preserve">
<g id="图层_1_1_">
</g>
<g>
	<path d="M303,433.7h154.9c15.5,0,28-12.5,28-28v-48.1c0-15.5-12.5-28-28-28H303c-15.5,0-28,12.5-28,28v48.1
		C275,421.1,287.5,433.7,303,433.7z"/>
	<path d="M932.2,800.4h-24.5V357.5c0-15.5-12.5-28-28-28H644.3V148.4c0-15.5-12.5-28-28-28H144.6c-15.5,0-28,12.5-28,28v652H92.1
		c-15.5,0-28,12.5-28,28v48.1c0,15.5,12.5,28,28,28h840.2c15.5,0,28-12.5,28-28v-48.1C960.3,812.9,947.7,800.4,932.2,800.4z
		 M538.4,791.6H222.5V233.3h315.9V791.6z M801.8,800.4H644.3V433.7h157.5V800.4z"/>
	<path d="M303,642.8h154.9c15.5,0,28-12.5,28-28v-48.1c0-15.5-12.5-28-28-28H303c-15.5,0-28,12.5-28,28v48.1
		C275,630.3,287.5,642.8,303,642.8z"/>
</g>
</svg>
