<?xml version="1.0" encoding="utf-8"?>
<!-- Generator: Adobe Illustrator 21.0.2, SVG Export Plug-In . SVG Version: 6.00 Build 0)  -->
<svg version="1.1" id="图层_1" xmlns="http://www.w3.org/2000/svg" xmlns:xlink="http://www.w3.org/1999/xlink" x="0px" y="0px"
	 viewBox="0 0 1024 1024" style="enable-background:new 0 0 1024 1024;" xml:space="preserve">
<path d="M896,320h-64H704V128c0-35.3-28.7-64-64-64H384c-35.3,0-64,28.7-64,64v192H192h-64c-35.3,0-64,28.7-64,64
	c0,35.3,28.7,64,64,64h64v448c0,35.3,28.7,64,64,64h512c35.3,0,64-28.7,64-64V448h64c35.3,0,64-28.7,64-64
	C960,348.7,931.3,320,896,320z M448,192h128v128H448V192z M448,832H320V448h128V832z M704,832H576V448h128V832z"/>
</svg>
