<?xml version="1.0" encoding="utf-8"?>
<!-- Generator: Adobe Illustrator 21.0.2, SVG Export Plug-In . SVG Version: 6.00 Build 0)  -->
<svg version="1.1" id="图层_1" xmlns="http://www.w3.org/2000/svg" xmlns:xlink="http://www.w3.org/1999/xlink" x="0px" y="0px"
	 viewBox="0 0 1024 1024" style="enable-background:new 0 0 1024 1024;" xml:space="preserve">
<g id="图层_1_1_">
</g>
<g id="图层_4">
	<g>
		<g>
			<path d="M927.7,264.2H734V125.9c0-15.3-12.4-27.7-27.7-27.7H319c-15.3,0-27.7,12.4-27.7,27.7v138.3H97.7
				c-15.3,0-27.7,12.4-27.7,27.7v608.7c0,15.3,12.4,27.7,27.7,27.7h830c15.3,0,27.7-12.4,27.7-27.7V291.9
				C955.3,276.6,942.9,264.2,927.7,264.2z M402,208.9h221.3v55.3H402V208.9z M844.7,817.6h-664V374.9h664V817.6z M263.7,596.2h193.7
				v83c0,15.3,12.4,27.7,27.7,27.7h55.3c15.3,0,27.7-12.4,27.7-27.7v-83h193.7c15.3,0,27.7-12.4,27.7-27.7v-55.3
				c0-15.3-12.4-27.7-27.7-27.7h-498c-15.3,0-27.7,12.4-27.7,27.7v55.3C236,583.8,248.4,596.2,263.7,596.2z"/>
		</g>
	</g>
</g>
</svg>
