<?xml version="1.0" encoding="utf-8"?>
<!-- Generator: Adobe Illustrator 21.1.0, SVG Export Plug-In . SVG Version: 6.00 Build 0)  -->
<svg version="1.1" id="图层_1" xmlns="http://www.w3.org/2000/svg" xmlns:xlink="http://www.w3.org/1999/xlink" x="0px" y="0px"
	 viewBox="0 0 1024 1024" style="enable-background:new 0 0 1024 1024;" xml:space="preserve">
<title>画板 1</title>
<g>
	<path d="M959.2,347.5C939.3,289.4,907,236.3,864.5,192C720.2,42.6,490.2,16.6,314.5,126.5l236.5,352.1L959.2,347.5z"/>
	<path d="M216.4,95.4c-20.6,13.3-40,28.2-58.1,44.7c-46,42.1-80.8,93.5-104.3,151.5l400.2,154.8L216.4,95.4z"/>
	<path d="M948.2,415.5L538.5,545.1L138.3,390.4c-61,151.4-27.5,323.3,86.5,441.3c163.1,168.8,435.4,178.9,609.5,19.8
		C956,740.3,1000.9,569.8,948.2,415.5z"/>
</g>
</svg>
