<svg id="图层_1" data-name="图层 1" xmlns="http://www.w3.org/2000/svg" width="1024" height="1024" viewBox="0 0 1024 1024">
  <title>画板 1</title>
  <g>
    <path d="M184.81,393.31l-.12.34c.4-1.1.79-2.19,1.2-3.29C185.52,391.34,185.17,392.33,184.81,393.31Z"/>
    <path d="M243.21,291l-.66.81,0,0c.49-.6,1-1.21,1.46-1.81Z"/>
    <path d="M848.25,422.06q1.75,6.58,3.26,13.25Q850,428.6,848.25,422Z"/>
    <path d="M858.91,484.34v0q-.2-2.53-.44-5Q858.71,481.81,858.91,484.34Z"/>
    <path d="M512,64C264.58,64,64,264.58,64,512S264.58,960,512,960,960,759.43,960,512,759.42,64,512,64ZM700.35,219.38l-1.75-1.11ZM231.88,305.43q-6.12,8.35-11.76,17Q225.75,313.77,231.88,305.43Zm-34.75,58.26q-2.61,5.53-5,11.18C193.71,371.11,195.37,367.38,197.13,363.69ZM645.36,833.58q-9.47,3.93-19.21,7.31l2-.72-3.47,1.21,1.41-.47q-6.48,2.25-13.08,4.25l.82-.26-3.1.92,2.2-.64q-9.9,3-20,5.41l.36-.09-2.13.49,1.63-.37A349,349,0,0,1,512,860c-192.2,0-348-155.8-348-348a349.37,349.37,0,0,1,7.68-73c.47-2.21,1-4.42,1.49-6.62-.51,2.2-1,4.4-1.49,6.62q1.62-7.57,3.56-15,.87-3.3,1.79-6.59l-.22.75q2.15-7.69,4.64-15.23c-.73,2.21-1.43,4.44-2.12,6.68q2-6.49,4.24-12.88c.36-1,.74-2.07,1.12-3.1-.24.67-.49,1.33-.73,2,.28-.78.57-1.56.85-2.34.43-1.18.85-2.37,1.29-3.55l-.22.6c.36-1,.73-1.91,1.09-2.86s.69-1.81,1-2.72q.72-1.83,1.46-3.64l1.26-3c-.42,1-.81,1.92-1.21,2.88q1-2.44,2-4.86l.5-1.18a347.2,347.2,0,0,1,23.37-45,32,32,0,0,1,2.11,7.11,8.16,8.16,0,0,1-1,5.48c-42.24,73.6-15.34,171.92,7.29,224.43,21,48.83,170.44,98.49,196.63,100.42,9.81.72,18.34,10.57,19.39,12.54,48.56,91,173.66,136.93,213.81,150q5.55-2.48,11-5.13-9.46,4.62-19.2,8.73l2.43-1c-1.25.53-2.5,1.06-3.75,1.57ZM187.93,385l-.51,1.32ZM665.55,824.34q2.31-1.13,4.61-2.3C668.63,822.82,667.09,823.58,665.55,824.34Zm100.12-74.11q4.1-4.37,8-8.87Q769.78,745.86,765.67,750.23Zm82.38-147.54q-1.23,4.62-2.59,9.16v0A346.54,346.54,0,0,1,799,708.91q-5.45,8-11.32,15.52-3,3.88-6.09,7.66-1.66,2-3.39,4.07-2.16,2.56-4.36,5.08l1.34-1.56-1.35,1.56,0,.06q-4,4.51-8.06,8.88-1.68,1.79-3.38,3.55-2.23,2.3-4.5,4.57,2.27-2.26,4.5-4.56a350,350,0,0,1-40.37,35.8q2.27-1.72,4.5-3.48c-16.06-26.53-22.67-72.51-24.65-91.9-2.75-26.86,8.6-164.71-19.71-177.56S559.5,542.11,523,566.09s-85.06,51-116.92,36.57S363,542.53,376.61,512.43c13.07-28.79,71.06-27.41,76-27.24h.74l26.16-1.53a8.28,8.28,0,0,0,6.06-13.36c-7.27-9.3-18.31-22-30.87-31.26-22.37-16.56-20.13-49.69,0-93.94s1.89-88.79-22.09-101.81-52.75,8.07-86.35,39.77-72,27.06-97.79,13.24a21.87,21.87,0,0,1-5.91-4.51c-3.62,4.42-7.16,8.91-10.56,13.52q5.11-6.91,10.55-13.53h0l.67-.8,1.52-1.85-.7.87,1.19-1.43q2.8-3.35,5.69-6.61-2.79,3.16-5.5,6.38,2.71-3.23,5.52-6.4l1.14-1.3.83-.94-.83.94c1.68-1.89,3.39-3.75,5.11-5.6l2.12-2.26q6.3-6.65,12.95-13l2-1.86q6.6-6.18,13.53-12l2.16-1.81,2.92-2.41-1.43,1.18q1.6-1.32,3.22-2.6,4.77-3.83,9.71-7.5,1.61-1.21,3.24-2.39l-2.34,1.7q2-1.51,4.12-3l-1.11.81,2-1.45q5.48-3.91,11.12-7.6c.87-.57,1.74-1.13,2.62-1.69l2.61-1.67-.79.51,3.65-2.28-2.81,1.72q6.6-4.16,13.39-8l-.58.34q1.83-1,3.69-2.07l-3,1.7q2.06-1.18,4.15-2.32l3.55-1.92c-1,.56-2.09,1.12-3.12,1.69q6.85-3.76,13.89-7.23l-.29.15.74-.36q2.1-1,4.22-2l-.14.07,1.19-.55a348.43,348.43,0,0,1,332.49,20.28q7.27,4.57,14.3,9.49l1.64,1.15q1.84,1.3,3.66,2.63c1.15.83,2.3,1.67,3.44,2.52.79.59,1.58,1.2,2.36,1.79,1.21.92,2.42,1.83,3.61,2.76q8.66,6.75,16.88,14l-.13.21s-1.74,46.16-11.55,63.06S686.56,380,722,396.06c33.37,15.15,90.87-6.17,121.36,9.41,1,3.21,2,6.44,3,9.69-.92-3.25-1.91-6.47-2.93-9.66l0,0q5.23,16.28,8.88,33.22c-.21-1-.41-2-.64-3,.67,3,1.29,6,1.88,9q.74,3.82,1.4,7.63c.21,1.24.44,2.47.64,3.71-.08-.5-.17-1-.26-1.49q.29,1.73.56,3.46c-.09-.56-.16-1.12-.25-1.67q1.05,6.52,1.85,13.13v0c.06.48.11,1,.16,1.43q.45,3.82.82,7.67c.19,1.94.37,3.88.52,5.83q1.08,13.71,1.09,27.7a348.44,348.44,0,0,1-12,90.59Z"/>
    <path d="M778.15,736.16q1.71-2,3.39-4.07-3.16,3.84-6.41,7.59Q776.67,737.91,778.15,736.16Z"/>
    <path d="M799,708.91q-5.45,7.92-11.32,15.52Q793.5,716.83,799,708.91Z"/>
    <path d="M848.05,602.69q-1.24,4.59-2.59,9.13Q846.82,607.28,848.05,602.69Z"/>
    <path d="M252.07,280.63l-1.14,1.3v0l1.16-1.32Z"/>
    <path d="M732,242.43q-3-2.5-6.12-4.91c-1.2-.93-2.41-1.85-3.61-2.76-.79-.6-1.57-1.2-2.36-1.79l-1.11-.81Q725.53,237.13,732,242.43Z"/>
    <path d="M718.79,232.15l-.2-.14Z"/>
    <path d="M718.6,232l-2.13-1.56c-1.22-.88-2.43-1.76-3.66-2.63l-1.64-1.15q-3.1-2.15-6.25-4.24Q711.89,227.06,718.6,232Z"/>
    <path d="M635.43,837.43q3.8-1.42,7.56-3Q639.23,836,635.43,837.43Z"/>
    <path d="M855.26,454.5l-.36-2.07C855,453.14,855.14,453.83,855.26,454.5Z"/>
  </g>
</svg>
