<?xml version="1.0" encoding="utf-8"?>
<!-- Generator: Adobe Illustrator 21.1.0, SVG Export Plug-In . SVG Version: 6.00 Build 0)  -->
<svg version="1.1" xmlns="http://www.w3.org/2000/svg" xmlns:xlink="http://www.w3.org/1999/xlink" x="0px" y="0px"
	 viewBox="0 0 1024 1024" enable-background="new 0 0 1024 1024" xml:space="preserve">
<g id="图层_1">
</g>
<g id="图层_3">
	<g>
		<path fill-rule="evenodd" clip-rule="evenodd" d="M896.089,192.119h-769c-35.2,0-64,28.8-64,64v0c0,35.2,28.8,64,64,64h769
			c35.2,0,64-28.8,64-64v0C960.089,220.919,931.289,192.119,896.089,192.119z"/>
		<path fill-rule="evenodd" clip-rule="evenodd" d="M896.089,448.961h-769c-35.2,0-64,28.8-64,64v0c0,35.2,28.8,64,64,64h769
			c35.2,0,64-28.8,64-64v0C960.089,477.76,931.289,448.961,896.089,448.961z"/>
		<path fill-rule="evenodd" clip-rule="evenodd" d="M896.089,705.802h-769c-35.2,0-64,28.8-64,64v0c0,35.2,28.8,64,64,64h769
			c35.2,0,64-28.8,64-64v0C960.089,734.602,931.289,705.802,896.089,705.802z"/>
	</g>
</g>
</svg>
