<svg id="图层_1" data-name="图层 1" xmlns="http://www.w3.org/2000/svg" width="1024" height="1024" viewBox="0 0 1024 1024">
  <title>画板 1</title>
  <path d="M511.87,64C323.06,64,170,217.06,170,405.87c0,127.63,70,238.89,173.59,297.61h0V910.25A49.75,49.75,0,0,0,393.33,960H630.41a49.75,49.75,0,0,0,49.75-49.75V703.49c103.64-58.72,173.59-170,173.59-297.62C853.74,217.06,700.68,64,511.87,64Zm69.39,679.19v34H443.11V743H576.76v.23ZM443.11,890V857.51H581.26V890Zm68.76-242.26C378.29,647.74,270,539.45,270,405.87S378.29,164,511.87,164,753.74,272.29,753.74,405.87,645.45,647.74,511.87,647.74Z"/>
</svg>
