<?xml version="1.0" encoding="utf-8"?>
<!-- Generator: Adobe Illustrator 21.1.0, SVG Export Plug-In . SVG Version: 6.00 Build 0)  -->
<svg version="1.1" id="图层_1" xmlns="http://www.w3.org/2000/svg" xmlns:xlink="http://www.w3.org/1999/xlink" x="0px" y="0px"
	 viewBox="0 0 1024 1024" style="enable-background:new 0 0 1024 1024;" xml:space="preserve">
<g>
	<path d="M287.2,408.2h449.6c10.4,0,17.3-6.9,17.3-17.2V287.2c0-10.4-6.9-17.3-17.3-17.3H287.2c-10.4,0-17.3,6.9-17.3,17.3V391
		C269.9,401.3,276.8,408.2,287.2,408.2z"/>
	<path d="M287.2,754.1H391c10.3,0,17.2-6.9,17.3-17.3V529.2c0-10.4-6.9-17.3-17.3-17.3H287.2c-10.4,0-17.3,6.9-17.3,17.3v207.6
		C269.9,747.2,276.8,754.1,287.2,754.1z"/>
	<path d="M736.8,512H529.3c-10.4,0-17.3,6.9-17.3,17.3v207.6c0,10.4,6.9,17.3,17.3,17.3h207.5c10.4,0,17.3-6.9,17.3-17.3V529.2
		C754.1,518.9,747.2,512,736.8,512z"/>
	<path d="M897,97H127c-16.5,0-30,13.5-30,30v770c0,16.5,13.5,30,30,30h770c16.5,0,30-13.5,30-30V127C927,110.5,913.5,97,897,97z
		 M858,858H166V166h692V858z"/>
</g>
</svg>
