<?xml version="1.0" encoding="utf-8"?>
<!-- Generator: Adobe Illustrator 21.0.2, SVG Export Plug-In . SVG Version: 6.00 Build 0)  -->
<svg version="1.1" id="图层_1" xmlns="http://www.w3.org/2000/svg" xmlns:xlink="http://www.w3.org/1999/xlink" x="0px" y="0px"
	 viewBox="0 0 1024 1024" style="enable-background:new 0 0 1024 1024;" xml:space="preserve">
<g id="图层_1_1_">
</g>
<g id="图层_2">
	<g>
		<g>
			<path d="M590.6,329c-25-22-58.9-33.1-100.7-33.1c-41.7,0-81,11.2-116.7,33.4c0,0-0.5,0.3-2.5,1.6c-65.8,40.5-40.4,95.2-14.8,95.2
				c3.9,0,20.1-1,27.9-7.5c29.6-24.7,56.2-45.2,92.2-51c13.4-2.1,29.5-1.2,39.9,8.3c13.5,12.4,20.3,27.5,20.3,46.6
				c0,18.1-4.5,34.3-13.4,48.2c-9.1,14.2-24.6,29.8-46.2,46.3c-23,17.7-39.2,34.9-48.3,51.1c-9.2,16.4-13.8,36.1-13.8,58.6v32h86.7
				V629c0-17.4,3.4-31,10-40.4c7-9.9,21.1-23.6,41.9-40.8c26.9-22,46.3-43.4,57.9-63.5c11.7-20.4,17.6-43.3,17.6-68.1
				C628.6,380.5,615.8,351.1,590.6,329z M468.6,686.6c-14.5,0-27.2,5.2-37.6,15.3c-10.5,10.2-15.8,23-15.8,38.1
				c0,15.3,5.4,28.2,16.1,38.3c10.6,10,23.2,15.1,37.4,15.1c14.7,0,27.6-5.1,38.2-15.3c10.6-10.2,16-23,16-38.1
				c0-14.8-5.4-27.6-16-37.9C496.2,691.8,483.4,686.6,468.6,686.6z M633.3,63.9H235.9c-40.6,0-73.7,33.4-73.7,74.5v746.7
				c0,41.1,33.1,74.5,73.7,74.5h552.3c40.6,0,73.7-33.4,73.7-74.5V291.1L633.3,63.9z M774.2,824.2c0,17.8-14.3,32.3-32,32.3H281.9
				c-17.6,0-32-14.5-32-32.3V202.4c0-17.8,14.3-32.3,32-32.3h347.1c0,105.9,7,103.6,11.5,108.4c5,5.3,15.1,12.2,63.9,14.2
				c24.3,1,32.7,0.8,69.8-0.5V824.2z"/>
		</g>
	</g>
</g>
</svg>
