<svg id="图层_1" data-name="图层 1" xmlns="http://www.w3.org/2000/svg" width="1024" height="1024" viewBox="0 0 1024 1024">
  <title>画板 1</title>
  <g>
    <path d="M960,142.22H785V214.8H895.72V370.41H128.28V214.8H239V142.22H64V935H960ZM761.24,506.74,497.31,813.9c1.2,3.81-4.75,4.38-8.76,1.27L300.18,661a8.67,8.67,0,0,1-1.69-12.14l.35-.44,28.37-32.66a9.77,9.77,0,0,1,13.23-1.27L486.18,729.2,711.92,466.47c3.27-5.31,9.23-5.88,13.24-2.77l37.22,28.9C766.39,495.71,768.67,498.62,761.24,506.74Z"/>
    <rect x="407" y="142.22" width="210" height="72.58"/>
    <rect x="279.55" y="89" width="87.19" height="198.66"/>
    <rect x="657.41" y="89" width="87.19" height="198.66"/>
  </g>
</svg>
