<?xml version="1.0" encoding="utf-8"?>
<!-- Generator: Adobe Illustrator 21.1.0, SVG Export Plug-In . SVG Version: 6.00 Build 0)  -->
<svg version="1.1" id="图层_1" xmlns="http://www.w3.org/2000/svg" xmlns:xlink="http://www.w3.org/1999/xlink" x="0px" y="0px"
	 viewBox="0 0 1024 1024" style="enable-background:new 0 0 1024 1024;" xml:space="preserve">
<g id="图层_1_1_">
</g>
<path d="M959.9,500.8c0.3,4,0,8.2-1.1,12.3l-80.7,348.3c-1.1,4.2-3,8-5.4,11.3c-8.6,16.9-21.8,31.8-39.2,42.7
	c-18.4,11.4-38.9,16.8-59.2,16.7V932l-667-0.3c-2.2-0.1-4,0-6,0c-20.6,0-37.3-15.9-37.3-36.1l0.3-438.4c0-20.2,16.6-36.2,37.2-36.2
	c1.5,0,3.2,0,4.7,0l123.9-0.3l0,0c114-8,204.3-100.1,207.5-212.9c-0.3-3.2-0.5-6.4-0.5-9.6c0-58.7,48.6-106.2,108.6-106.2
	c51.5,0,94.6,35.2,105.7,82.3l0.5-0.1c6.1,26.9,9.5,54.8,9.5,83.5c0,44.2-7.7,86.7-21.9,126.2l208.4,0.2c1.9,0,3.8,0.2,5.6,0.5
	c35.6,1.4,69.8,19.3,90,51.1C956.4,456,961.5,478.8,959.9,500.8L959.9,500.8z M138.7,858.7h74.7l0.3-364.9L139,494L138.7,858.7
	 M880.6,473.9c-7.2-11.3-19.8-17.3-32.5-16.6v-0.1H848L584.6,457c-20.6,0-37.3-16.4-37.3-36.5c0-5.8,1.4-11.3,3.9-16.2l-0.4-0.3
	c14.9-27.2,25.8-56.8,31.9-88l0,0c0,0,5.4-19.7,5.4-57.5c0-30-5.8-58.4-5.8-58.9c0-18.9-15.6-34.1-34.9-34.1
	c-19.3,0-34.9,15.3-34.9,34.1c0,0.8-0.4,2.3-0.4,2.3s0.6,28.5-5.2,58.1c-2.5,12.5-5.9,24.2-9.1,33.5c-0.1,0-0.1-0.1-0.2-0.1
	c-31.4,94-110.4,166.8-209.2,191.4l-0.4,374l486.5,0.2c1.6,0,3.3,0.1,4.8,0.3c5-0.7,9.8-2.4,14.1-5c6.3-3.9,10.8-9.4,13.5-15.6
	l0.1,0.1l77.7-335.4l-0.3-0.1C887.4,493.8,886.4,483.1,880.6,473.9L880.6,473.9z"/>
</svg>
