<?xml version="1.0" encoding="utf-8"?>
<!-- Generator: Adobe Illustrator 21.0.2, SVG Export Plug-In . SVG Version: 6.00 Build 0)  -->
<svg version="1.1" id="图层_1" xmlns="http://www.w3.org/2000/svg" xmlns:xlink="http://www.w3.org/1999/xlink" x="0px" y="0px"
	 viewBox="0 0 1024 1024" style="enable-background:new 0 0 1024 1024;" xml:space="preserve">
<g id="图层_1_1_">
</g>
<g id="图层_3">
	<path d="M513,928.2c-229.2,0-415-185.8-415-415c0-229.2,185.8-415,415-415c229.2,0,415,185.8,415,415
		C928.1,742.4,742.3,928.2,513,928.2z M513,201.9c-171.9,0-311.3,139.4-311.3,311.3c0,22.5,7.3,59.8,7.3,59.8
		c28,143.1,152.7,251.5,304,251.5c151.3,0,275.9-108.4,304-251.5c0,0,7.3-37.2,7.3-59.8C824.3,341.3,685,201.9,513,201.9z
		 M668.7,461.3c-28.7,0-51.9-23.2-51.9-51.9c0-28.7,23.2-51.9,51.9-51.9s51.9,23.2,51.9,51.9C720.6,438.1,697.3,461.3,668.7,461.3z
		 M644.2,541.1l75.5,75.5C672.3,679.5,597.8,720.7,513,720.7s-159.3-41.2-206.6-104.1l75.5-75.5c27.2,44.9,74.8,75.8,131.1,75.8
		S617,586,644.2,541.1z M357.4,461.3c-28.6,0-51.9-23.2-51.9-51.9c0-28.7,23.2-51.9,51.9-51.9c28.7,0,51.9,23.2,51.9,51.9
		C409.3,438.1,386.1,461.3,357.4,461.3z"/>
</g>
</svg>
