<?xml version="1.0" encoding="utf-8"?>
<!-- Generator: Adobe Illustrator 21.1.0, SVG Export Plug-In . SVG Version: 6.00 Build 0)  -->
<svg version="1.1" id="图层_1" xmlns="http://www.w3.org/2000/svg" xmlns:xlink="http://www.w3.org/1999/xlink" x="0px" y="0px"
	 viewBox="0 0 1024 1024" style="enable-background:new 0 0 1024 1024;" xml:space="preserve">
<g id="图层_1_1_">
</g>
<path d="M932.2,236.5h-66.3v-0.4L724.8,373.7V218.1c0-15.5-12.5-28-28-28H92.2c-15.5,0-28,12.5-28,28v588c0,15.5,12.5,28,28,28
	h604.6c15.5,0,28-12.5,28-28V650.5l141.1,137.6v-0.4h66.3c15.5,0,28-12.5,28-28V264.5C960.2,249,947.7,236.5,932.2,236.5z
	 M630.3,742.2H158.7V282h471.6V742.2L630.3,742.2z M865.9,696.1l-141.5-138v-92l141.5-138V696.1z"/>
</svg>
