<?xml version="1.0" encoding="utf-8"?>
<!-- Generator: Adobe Illustrator 21.1.0, SVG Export Plug-In . SVG Version: 6.00 Build 0)  -->
<svg version="1.1" id="图层_1" xmlns="http://www.w3.org/2000/svg" xmlns:xlink="http://www.w3.org/1999/xlink" x="0px" y="0px"
	 viewBox="0 0 1024 1024" style="enable-background:new 0 0 1024 1024;" xml:space="preserve">
<path d="M925.3,607.4c-3.5-2.7-7.2-5.2-11.1-7.4c-18-6.4-33.5-18.1-44.7-33.6c-11.3-15.7-17-33.9-17-54.8c-0.2-21,7-41.4,20.3-57.6
	c13.5-16.9,29.8-28.7,48.8-35.5c5-1.8,9.8-5.7,14.4-11.5s6.3-14,5.1-24.4c-2.6-18.2-7.3-36-14.3-53c-7.1-17.5-15.2-30.5-24.4-39.1
	c-4.8-4.9-11.2-7.8-18-8.3c-7.1-0.6-13.1,0.6-18,3.7c-18.4,8.6-38.4,12.1-59.9,10.6c-21.5-1.5-39.7-9.6-54.4-24.4
	s-23.6-31.9-26.7-51.6c-3.2-19-0.6-38.6,7.4-56.2c1.2-2.5,2.5-6.6,3.7-12.4c1.3-5.5,0.3-11.3-2.8-16.1c-5.3-8.4-12-15.9-19.8-22.1
	c-8.3-6.8-17.4-12.3-27.2-16.6c-9.7-4.2-19.7-7.6-29.9-10.1c-9.2-2.3-18.6-3.6-28.1-3.7c-5.5,0-10.9,2.6-16.1,7.8
	c-4.6,4.4-8.5,9.5-11.5,15.2c-6.7,18.4-18.4,33.6-35,45.6s-35.6,18-57.1,18c-20.9,0-39-6.3-54.4-18.9s-26.4-27.2-33.2-43.7
	c-2.1-6-5.4-11.5-9.7-16.2c-4.6-5.2-10.9-7.8-18.9-7.8c-6.1,0-14.4,1.1-24.8,3.3c-11,2.3-21.8,5.6-32.2,9.7
	c-10.9,4.2-21.2,9.6-30.9,16.1c-9.5,6.4-16.1,14-19.8,22.6c-1.8,3.7-2.3,8-1.4,12.9c0.8,4.4,1.9,8.7,3.2,12.9
	c0.6,3.7,1.4,9.8,2.3,18.4c0.9,9.5,0.9,19.1,0,28.6c-1,10.8-3.2,21.5-6.5,31.8c-3.1,10.2-8.6,19.6-16.1,27.2
	c-15.4,14.7-33,23.5-53,26.3c-19.5,2.8-39.3,0.4-57.6-6.9c-4.9-1.7-10-2.9-15.2-3.7c-4.6-0.6-9.4,0.6-14.3,3.7
	c-6.1,3.7-11.8,9.3-17,17c-5.4,8-10,16.5-13.8,25.3c-4,9.2-7.2,18.8-9.7,28.6c-2.3,8.7-3.5,17.7-3.7,26.7c0,7.6,1.9,15,5.5,21.7
	c3.7,7.1,8.3,11.5,13.8,13.4c18.4,7.4,35,19,49.8,35c14.7,16,22.1,34.7,22.1,56.2c0.1,20.9-7.3,39.8-22,56.7
	c-14.7,16.9-31.3,29-49.8,36.4c-10.4,3.7-16.6,12.3-18.4,25.8c-1.2,7.4-0.6,16.8,1.8,28.1c2.5,11.4,6,22.5,10.6,33.2
	c4.3,10.3,9.6,20.1,15.7,29.5c5.8,8.9,12.1,14.5,18.9,17c8.1,3.7,17.3,4.3,25.8,1.8c12.8-4.2,26.2-6.7,39.6-7.4
	c11.8-0.6,23.5,0.5,35,3.2c12,2.6,23,8.9,31.3,18c14.1,15.4,22,32.1,23.5,50.2s-1.1,34.2-7.8,48.4c-4.9,10.4-7.2,18.6-6.9,24.4
	c0.2,5.5,1.9,10.7,5.1,15.2c4.3,6.1,10.8,12.3,19.4,18.4c9.1,6.4,18.8,11.8,29,16.1c10.5,4.5,21.3,8.4,32.2,11.5
	c10.7,3.1,20.4,4.6,29,4.6c7.1,0.1,14.1-1.7,20.3-5.1c6.1-3.4,10.7-8.7,13.8-16.1c6.8-18.4,18.6-34.5,35.5-48.3
	c16.9-13.8,35.8-20.7,56.7-20.7c20.8-0.3,40.9,7.1,56.7,20.7c16.3,13.8,27.8,30.3,34.6,49.3h0.9c2.2,5.4,5.7,10.1,10.2,13.8
	c4.9,4.3,10.1,6.5,15.7,6.5c9.3-0.2,18.6-1.4,27.6-3.7c10.3-2.4,20.3-5.8,29.9-10.1c9.1-4.1,17.9-8.8,26.3-14.3
	c8-5.2,13.8-10.3,17.5-15.2c8-12.3,8.9-24.6,2.8-36.8c-8-17.6-10.8-37.1-8.3-56.2c2.5-19.7,11.1-37.2,25.8-52.5
	c6.6-7.3,15-12.7,24.4-15.7c9.3-3,18.9-5,28.6-6c9.4-0.9,18.8-0.6,28.1,0.9c7.8,1.2,15.4,2.9,23,5.1c5.9,2.3,12.1,3.5,18.4,3.7
	c5.5,0,12-1.8,19.3-5.5s14.1-9.8,20.3-18.4c6.4-9,11.6-18.7,15.7-29c4.2-10.2,7.2-20.9,9.2-31.8c1.8-10.4,2.1-19.3,0.9-26.7
	C936.9,620.2,932.1,612.8,925.3,607.4z M512,712.5c-110.7,0-200.5-89.8-200.5-200.5S401.3,311.5,512,311.5S712.5,401.3,712.5,512
	S622.7,712.5,512,712.5z"/>
</svg>
