<?xml version="1.0" encoding="utf-8"?>
<!-- Generator: Adobe Illustrator 21.1.0, SVG Export Plug-In . SVG Version: 6.00 Build 0)  -->
<svg version="1.1" id="图层_1" xmlns="http://www.w3.org/2000/svg" xmlns:xlink="http://www.w3.org/1999/xlink" x="0px" y="0px"
	 viewBox="0 0 1024 1024" style="enable-background:new 0 0 1024 1024;" xml:space="preserve">
<g id="图层_1_1_">
</g>
<path d="M694.8,556.5c60.6-51.3,99.1-127.7,99.1-213.1C793.9,189,668.1,63.9,513,63.9S232.1,189,232.1,343.4
	c0,85.4,38.5,161.8,99.1,213.1C206.2,622,121,753,121,903.9c0,30.9,24.9,56,55.6,56s55.6-25.1,55.6-56
	C232.1,748.8,357.9,623,513,623s280.9,125.8,280.9,280.9c0,30.9,24.9,56,55.6,56c30.7,0,55.6-25.1,55.6-56
	C905,753,819.8,622,694.8,556.5z M513,511.9c-92.3,0-167.1-75.4-167.1-168.4S420.7,175.1,513,175.1s167.1,75.4,167.1,168.4
	S605.3,511.9,513,511.9z"/>
</svg>
