<?xml version="1.0" encoding="utf-8"?>
<!-- Generator: Adobe Illustrator 21.1.0, SVG Export Plug-In . SVG Version: 6.00 Build 0)  -->
<svg version="1.1" id="图层_1" xmlns="http://www.w3.org/2000/svg" xmlns:xlink="http://www.w3.org/1999/xlink" x="0px" y="0px"
	 viewBox="0 0 1024 1024" style="enable-background:new 0 0 1024 1024;" xml:space="preserve">
<g id="图层_1_1_">
</g>
<path d="M512.9,98.2c-229.2,0-415,185.8-415,415s185.8,415,415,415s415-185.8,415-415S742.1,98.2,512.9,98.2z M512.9,824.5
	c-171.6,0-311.2-139.6-311.2-311.3c0-171.6,139.6-311.2,311.2-311.2s311.2,139.6,311.2,311.2C824.2,684.8,684.5,824.5,512.9,824.5z
	 M552.8,469.8c-59.8-19.7-84.1-33.7-84.1-54c0-17.8,14.5-36.3,59.8-36.3c50.2,0,82.8,14.7,100.1,22.4l20.8-71.8
	c-24.4-10.2-55.6-19.8-101.5-21v-55.9h-68.1v60.2c-74.3,12.9-117.4,56.7-117.4,113.4c0,61.5,50.6,93.3,125.1,116.2
	c52.1,16,74.2,31.2,74.2,55.4c0,24.8-27.1,39.3-67.3,39.3c-45.1,0-86.2-13.4-115.3-28l-20.8,74.5c26.5,13.4,71.6,25.4,118.1,27.3
	v60.4H545v-65.7c80-12,123.1-60.2,123.1-116.8C668.1,531.5,635.4,496.6,552.8,469.8z"/>
</svg>
