<?xml version="1.0" encoding="utf-8"?>
<!-- Generator: Adobe Illustrator 21.1.0, SVG Export Plug-In . SVG Version: 6.00 Build 0)  -->
<svg version="1.1" id="图层_1" xmlns="http://www.w3.org/2000/svg" xmlns:xlink="http://www.w3.org/1999/xlink" x="0px" y="0px"
	 viewBox="0 0 1024 1024" style="enable-background:new 0 0 1024 1024;" xml:space="preserve">
<g id="图层_1_1_">
</g>
<path d="M512,959.6c50,0,91-41.3,91-91.9H421C421,918.2,461.9,959.6,512,959.6z M784.9,684V454.3c0-141-74.1-259.1-204.7-290.3
	v-31.2c0-38.1-30.5-68.9-68.2-68.9s-68.2,30.8-68.2,68.9V164c-130.1,31.2-204.7,148.8-204.7,290.3V684l-91,91.9v45.9h727.8v-45.9
	L784.9,684z M693.9,729.9H330V454.3c0-113.9,68.7-206.7,181.9-206.7s181.9,92.8,181.9,206.7V729.9z"/>
</svg>
