<svg id="图层_1" data-name="图层 1" xmlns="http://www.w3.org/2000/svg" width="1024" height="1024" viewBox="0 0 1024 1024">
  <title>画板 1</title>
  <g>
    <path d="M713.22,442.82H927.37c17,0,31.74-8.62,31.74-26.84s-12.78-26.83-29.76-26.83H713.22c-17,0-30.76,8.62-30.76,26.83S696.23,442.82,713.22,442.82Z"/>
    <path d="M929.76,512.13H759c-17,0-30.76,8.62-30.76,26.83s13.77,26.81,30.76,26.81H928.78c17,0,29.76-8.63,29.76-26.84S946.73,512.13,929.76,512.13Z"/>
    <path d="M741.46,717.52,578.23,653.91s-31.12-12.09-43.21-24c-7.77-7.65-7.22-25.67-.33-48.69s90.54-116.58,90.54-201.57C625.23,248.38,538.95,142,432.52,142S239.8,248.42,239.8,379.68c0,81.4,74.56,178.44,83.76,196.08s7,44.51-.3,52.66c-10.92,12.23-50.8,24.5-50.8,24.5L125.31,718.51C90.93,730.85,64,763.27,64,799.85V817.2c0,39.92,32.42,64.34,72.27,64.34H730.49c39.85,0,72.27-24.42,72.27-64.34V799.85C802.77,763.28,775.84,729.86,741.46,717.52Z"/>
    <path d="M930.26,628H815.82c-17,0-30.76,8.62-30.76,26.83s13.78,26.84,30.76,26.84H929.27c17,0,30.74-8.63,30.74-26.84S947.23,628,930.26,628Z"/>
  </g>
</svg>
