<?xml version="1.0" encoding="utf-8"?>
<!-- Generator: Adobe Illustrator 21.1.0, SVG Export Plug-In . SVG Version: 6.00 Build 0)  -->
<svg version="1.1" id="图层_1" xmlns="http://www.w3.org/2000/svg" xmlns:xlink="http://www.w3.org/1999/xlink" x="0px" y="0px"
	 viewBox="0 0 1024 1024" style="enable-background:new 0 0 1024 1024;" xml:space="preserve">
<path d="M801.1,440.3h-60V293.2c0-126.5-102.5-229-229-229h0c-126.5,0-229,102.5-229,229v147.1h-60c-33,0-60,27-60,60V900
	c0,33,27,60,60,60h578c33,0,60-27,60-60V500.3C861.1,467.3,834.1,440.3,801.1,440.3z M373.1,296.2c0-76.8,62.2-139,139-139h0
	c76.8,0,139,62.2,139,139v144.1h-278V296.2z M543.1,709.8v88.2c0,5.5-4.5,10-10,10h-44c-5.5,0-10-4.5-10-10v-88.2
	c-23.1-11.7-39-35.7-39-63.4c0-39.2,31.8-71,71-71s71,31.8,71,71C582.1,674.1,566.2,698.1,543.1,709.8z"/>
</svg>
