<?xml version="1.0" encoding="utf-8"?>
<!-- Generator: Adobe Illustrator 21.1.0, SVG Export Plug-In . SVG Version: 6.00 Build 0)  -->
<svg version="1.1" id="图层_1" xmlns="http://www.w3.org/2000/svg" xmlns:xlink="http://www.w3.org/1999/xlink" x="0px" y="0px"
	 viewBox="0 0 1024 1024" style="enable-background:new 0 0 1024 1024;" xml:space="preserve">
<g>
	<path d="M491.1,54.6L301.6,244.1l210.7,210.7l210.7-210.7L533.6,54.6C521.8,42.9,502.9,42.9,491.1,54.6z"/>
	<path d="M969.1,490.1L779.6,300.6L568.9,511.4l210.7,210.7l189.5-189.5C980.9,520.9,980.9,501.9,969.1,490.1z"/>
	<path d="M55.6,490.1c-11.7,11.7-11.7,30.7,0,42.4l189.5,189.5l210.7-210.7L245.1,300.6L55.6,490.1z"/>
	<path d="M301.6,778.6l189.5,189.5c11.7,11.7,30.7,11.7,42.4,0l189.5-189.5L512.4,567.9L301.6,778.6z"/>
</g>
</svg>
