<?xml version="1.0" encoding="utf-8"?>
<!-- Generator: Adobe Illustrator 21.1.0, SVG Export Plug-In . SVG Version: 6.00 Build 0)  -->
<svg version="1.1" id="图层_1" xmlns="http://www.w3.org/2000/svg" xmlns:xlink="http://www.w3.org/1999/xlink" x="0px" y="0px"
	 viewBox="0 0 1024 1024" style="enable-background:new 0 0 1024 1024;" xml:space="preserve">
<g>
	<path d="M907,127.9H117c-11,0-20,9-20,20v729c0,11,9,20,20,20h790c11,0,20-9,20-20v-729C927,136.9,918,127.9,907,127.9z
		 M834.5,804.4h-645v-584h645V804.4z"/>
	<path d="M253,406l39.2,39.3l26.2,26.2c14.5,14.5,38,14.5,52.4,0l26.2-26.2l91.7-91.7c14.6-14.5,14.6-37.9,0.1-52.4
		s-37.9-14.5-52.4,0l-91.7,91.7l-39.3-39.3c-14.4-14.5-37.9-14.5-52.3-0.1c0,0,0,0-0.1,0.1C238.5,368,238.5,391.5,253,406
		C252.9,405.9,252.9,405.9,253,406z"/>
	<path d="M370.9,512.2c-61.4,0-111.2,49.8-111.2,111.2s49.8,111.2,111.2,111.2s111.2-49.8,111.2-111.2S432.3,512.2,370.9,512.2z
		 M370.9,660.5c-20.4,0-37-16.6-37-37s16.6-37,37-37c20.4,0,37,16.6,37,37S391.3,660.4,370.9,660.5z"/>
	<path d="M577.9,423.3h167c20.3,0,37-16.6,37-37v0c0-20.3-16.7-37-37-37h-167c-20.3,0-37,16.6-37,37v0
		C540.9,406.7,557.5,423.3,577.9,423.3z"/>
	<path d="M577.9,660.4h167c20.3,0,37-16.6,37-37v0c0-20.3-16.7-37-37-37h-167c-20.3,0-37,16.6-37,37v0
		C540.9,643.8,557.5,660.4,577.9,660.4z"/>
</g>
</svg>
