<?xml version="1.0" encoding="utf-8"?>
<!-- Generator: Adobe Illustrator 21.0.2, SVG Export Plug-In . SVG Version: 6.00 Build 0)  -->
<svg version="1.1" id="图层_1" xmlns="http://www.w3.org/2000/svg" xmlns:xlink="http://www.w3.org/1999/xlink" x="0px" y="0px"
	 viewBox="0 0 1024 1024" style="enable-background:new 0 0 1024 1024;" xml:space="preserve">
<g>
	<path d="M802.1,100H227.9c-0.1,0-0.3,0-0.4,0C157,100.1,99.9,157.4,100,227.9v574.2c0,0.1,0,0.3,0,0.4
		c0.1,70.5,57.4,127.6,127.9,127.5h574.2c0.1,0,0.3,0,0.4,0c70.5-0.1,127.6-57.4,127.5-127.9V227.9c0-0.1,0-0.3,0-0.4
		C929.9,157,872.6,99.9,802.1,100z M866.2,802.1c0,0.1,0,0.3,0,0.4c-0.1,35.3-28.8,63.8-64,63.7H227.9c-0.1,0-0.3,0-0.4,0
		c-35.3-0.1-63.8-28.8-63.7-64V227.9c0-0.1,0-0.3,0-0.4c0.1-35.3,28.8-63.8,64-63.7H802c0.1,0,0.3,0,0.4,0
		c35.3,0.1,63.8,28.8,63.7,64L866.2,802.1L866.2,802.1z"/>
	<polygon points="604.1,380.7 380.7,604.1 291.5,515 291.5,738.5 515,738.5 425.9,649.3 649.3,425.9 738.5,515 738.5,291.5 
		515,291.5 	"/>
</g>
</svg>
