<?xml version="1.0" encoding="utf-8"?>
<!-- Generator: Adobe Illustrator 21.1.0, SVG Export Plug-In . SVG Version: 6.00 Build 0)  -->
<svg version="1.1" id="图层_1" xmlns="http://www.w3.org/2000/svg" xmlns:xlink="http://www.w3.org/1999/xlink" x="0px" y="0px"
	 viewBox="0 0 1024 1024" style="enable-background:new 0 0 1024 1024;" xml:space="preserve">
<path d="M592.7,513l318.8-318.8c22-22,22-57.7,0-79.7s-57.7-22-79.7,0L513,433.3L194.2,114.5c-22-22-57.7-22-79.7,0s-22,57.7,0,79.7
	L433.3,513L114.5,831.8c-22,22-22,57.7,0,79.7s57.7,22,79.7,0L513,592.7l318.8,318.8c22,22,57.7,22,79.7,0s22-57.7,0-79.7L592.7,513
	z"/>
</svg>
