<?xml version="1.0" encoding="utf-8"?>
<!-- Generator: Adobe Illustrator 21.0.2, SVG Export Plug-In . SVG Version: 6.00 Build 0)  -->
<svg version="1.1" id="图层_1" xmlns="http://www.w3.org/2000/svg" xmlns:xlink="http://www.w3.org/1999/xlink" x="0px" y="0px"
	 viewBox="0 0 1024 1024" style="enable-background:new 0 0 1024 1024;" xml:space="preserve">
<path d="M680.5,512.5l223.9-223.9c30.8-30.8,30.8-81.2,0-112l-56-56c-30.8-30.8-81.2-30.8-112,0L512.5,344.5L288.6,120.6
	c-30.8-30.8-81.2-30.8-112,0l-56,56c-30.8,30.8-30.8,81.2,0,112l223.9,223.9L120.6,736.4c-30.8,30.8-30.8,81.2,0,112l56,56
	c30.8,30.8,81.2,30.8,112,0l223.9-223.9l223.9,223.9c30.8,30.8,81.2,30.8,112,0l56-56c30.8-30.8,30.8-81.2,0-112L680.5,512.5z"/>
</svg>
