<?xml version="1.0" encoding="utf-8"?>
<!-- Generator: Adobe Illustrator 21.0.2, SVG Export Plug-In . SVG Version: 6.00 Build 0)  -->
<svg version="1.1" id="图层_1" xmlns="http://www.w3.org/2000/svg" xmlns:xlink="http://www.w3.org/1999/xlink" x="0px" y="0px"
	 viewBox="0 0 1024 1024" style="enable-background:new 0 0 1024 1024;" xml:space="preserve">
<g>
	<path d="M973.1,800.3L563.7,492.6L973.2,172c0,0-123.9-99.7-255.9-5.4S318.6,492.5,318.6,492.5l428.3,336.8
		C746.9,829.3,862.7,886.5,973.1,800.3z M400.7,490.1c0-26.1,21.1-47.2,47.2-47.2s47.2,21.1,47.2,47.2s-21.1,47.2-47.2,47.2
		C421.9,537.3,400.7,516.2,400.7,490.1z"/>
	<path d="M391,688.7c0-86.7-70.3-156.9-156.9-156.9c-86.7,0-156.9,70.3-156.9,156.9c0,86.7,70.3,156.9,156.9,156.9
		C320.8,845.6,391,775.3,391,688.7z M155.1,688.7c0-43.6,35.4-79,79-79s79,35.4,79,79s-35.4,79-79,79S155.1,732.3,155.1,688.7z"/>
	<path d="M391,295.3c0-86.7-70.3-156.9-156.9-156.9c-86.7,0-156.9,70.3-156.9,156.9c0,86.7,70.3,156.9,156.9,156.9
		C320.8,452.2,391,382,391,295.3z M155.1,295.3c0-43.6,35.4-79,79-79s79,35.4,79,79s-35.4,79-79,79S155.1,338.9,155.1,295.3z"/>
</g>
</svg>
