<?xml version="1.0" encoding="utf-8"?>
<!-- Generator: Adobe Illustrator 21.0.2, SVG Export Plug-In . SVG Version: 6.00 Build 0)  -->
<svg version="1.1" id="图层_1" xmlns="http://www.w3.org/2000/svg" xmlns:xlink="http://www.w3.org/1999/xlink" x="0px" y="0px"
	 viewBox="0 0 1024 1024" style="enable-background:new 0 0 1024 1024;" xml:space="preserve">
<g>
	<rect x="128" y="896" width="768" height="64"/>
	<path d="M195.5,171.3c1.2,20.3,1.2,38.2,3.5,57.2c2.4,19.1,3.5,35.8,5.9,50.1H232L290.8,128H448v640c-18.8,2.4-53.6,11.5-70.1,16.3
		c-16.5,4.8-32.9,9.5-49.4,15.5V832h367v-33.4c-15.3-7.2-31.8-11.9-48.2-15.5c-16.5-3.6-52.5-11.5-71.3-15.1V128h157.2l57.6,149.5
		h29.4c2.4-15.5,3.5-32.2,4.7-51.3c1.2-19.1,2.4-38.2,3.5-57.2s1.2-38.2,2.4-56C832,95,832,78.3,832,64H192c0,14.3,1.2,31,1.2,50.1
		S194.4,152.2,195.5,171.3z"/>
</g>
</svg>
