<?xml version="1.0" encoding="utf-8"?>
<!-- Generator: Adobe Illustrator 21.0.2, SVG Export Plug-In . SVG Version: 6.00 Build 0)  -->
<svg version="1.1" id="图层_1" xmlns="http://www.w3.org/2000/svg" xmlns:xlink="http://www.w3.org/1999/xlink" x="0px" y="0px"
	 viewBox="0 0 1024 1024" style="enable-background:new 0 0 1024 1024;" xml:space="preserve">
<g id="图层_1_1_">
</g>
<g id="图层_2">
	<path d="M904.2,904.2H120c-30.9,0-56-25.1-56-56V176.1c0-30.9,25.1-56,56-56h784.1c30.9,0,56,25.1,56,56v672.1
		C960.2,879.1,935.1,904.2,904.2,904.2z M848.2,232.1H176v250.8L331,382l181.1,232.1l188-102l148,140V232.1z M680.1,634.2l-184,102
		L311.8,511.7L176,604.2v188h672.1L680.1,634.2z M568.1,372.1c0-46.4,37.6-84,84-84s84,37.6,84,84c0,46.4-37.6,84-84,84
		C605.7,456.1,568.1,418.5,568.1,372.1z"/>
</g>
</svg>
