<?xml version="1.0" encoding="utf-8"?>
<!-- Generator: Adobe Illustrator 21.1.0, SVG Export Plug-In . SVG Version: 6.00 Build 0)  -->
<svg version="1.1" id="图层_1" xmlns="http://www.w3.org/2000/svg" xmlns:xlink="http://www.w3.org/1999/xlink" x="0px" y="0px"
	 viewBox="0 0 1024 1024" style="enable-background:new 0 0 1024 1024;" xml:space="preserve">
<g>
	<path d="M852.5,289.6h-220l-260,260v370c0,22.1,17.9,40,40,40h440c22.1,0,40-17.9,40-40v-590C892.5,307.5,874.6,289.6,852.5,289.6z
		 M802.5,869.6h-340v-320h170v-170h170V869.6z"/>
	<path d="M492.5,289.6h90v-186c0-22.1-17.9-40-40-40h-220l-260,260v370c0,22.1,17.9,40,40,40h220v-90h-170v-320h170v-170h170V289.6z
		"/>
</g>
</svg>
