<?xml version="1.0" encoding="utf-8"?>
<!-- Generator: Adobe Illustrator 21.0.2, SVG Export Plug-In . SVG Version: 6.00 Build 0)  -->
<svg version="1.1" id="图层_1" xmlns="http://www.w3.org/2000/svg" xmlns:xlink="http://www.w3.org/1999/xlink" x="0px" y="0px"
	 viewBox="0 0 1024 1024" style="enable-background:new 0 0 1024 1024;" xml:space="preserve">
<g>
	<path d="M204.4,311.7c0.9,10.3,1.7,20.6,2.6,30.8c0.9,10.3,1.7,19.1,3.5,27.2h18.2l29-64.2h99.7V639c-9.6,1.4-26.7,2.9-34.9,4.7
		c-11.3,2.2-21.7,5.1-32.1,8.1v16.9h237v-16.9c-10.4-3.7-20.8-5.9-31.3-8.1c-8.3-1.7-25.4-3.1-34.9-4.7V305.5h99.5l28.4,64.2h19.1
		c1.7-8.8,2.6-17.6,3.5-27.9c0.9-10.3,1.7-19.8,2.6-30.8s0.9-21.3,1.7-30.8c0.9-9.5,0.9-18.4,0.9-26.4h-415c0,8.1,0,16.9,0.9,27.2
		C202.6,291.1,203.5,301.4,204.4,311.7z"/>
	<path d="M98,98v830h830V98H98z M876.1,876.1H149.9V149.9h726.2V876.1z"/>
	<rect x="201.8" y="720.5" width="622.5" height="51.9"/>
	<rect x="616.8" y="616.8" width="207.5" height="51.9"/>
	<rect x="616.8" y="513" width="207.5" height="51.9"/>
	<rect x="668.6" y="409.2" width="155.6" height="51.9"/>
</g>
</svg>
