<?xml version="1.0" encoding="utf-8"?>
<!-- Generator: Adobe Illustrator 21.0.2, SVG Export Plug-In . SVG Version: 6.00 Build 0)  -->
<svg version="1.1" id="图层_1" xmlns="http://www.w3.org/2000/svg" xmlns:xlink="http://www.w3.org/1999/xlink" x="0px" y="0px"
	 viewBox="0 0 1024 1024" style="enable-background:new 0 0 1024 1024;" xml:space="preserve">
<g>
	<path d="M306.4,332.7c0,10.3,0.9,20.6,1.7,30.8c0.9,10.3,1.7,20.6,2.6,30.8c0.9,10.3,1.7,19.1,3.5,27.2h18.2l29-64.2h99.7v333.5
		c-9.6,1.4-26.7,2.9-34.9,4.7c-11.3,2.2-21.7,5.1-32.1,8.1v16.9h237v-16.9c-10.4-3.7-20.8-5.9-31.3-8.1c-8.3-1.7-25.4-3.1-34.9-4.7
		V357.4h99.5l28.4,64.2h19.1c1.7-8.8,2.6-17.6,3.5-27.9c0.9-10.3,1.7-19.8,2.6-30.8s0.9-21.3,1.7-30.8c0.9-9.5,0.9-18.4,0.9-26.4
		h-415C305.5,313.6,305.5,322.4,306.4,332.7z"/>
	<path d="M876.1,777.1V248.9c30.2-10.7,51.9-39.2,51.9-73.1c0-43-34.8-77.8-77.8-77.8c-33.8,0-62.3,21.7-73.1,51.9H248.9
		C238.1,119.7,209.6,98,175.8,98c-43,0-77.8,34.8-77.8,77.8c0,33.8,21.7,62.3,51.9,73.1v528.3C119.7,787.9,98,816.4,98,850.2
		c0,43,34.8,77.8,77.8,77.8c33.8,0,62.3-21.7,73.1-51.9h528.3c10.7,30.2,39.2,51.9,73.1,51.9c43,0,77.8-34.8,77.8-77.8
		C928,816.4,906.3,787.9,876.1,777.1z M824.2,777.1c-22,7.8-39.3,25.1-47.1,47.1H248.9c-7.8-22-25.1-39.3-47.1-47.1V248.9
		c22-7.8,39.3-25.1,47.1-47.1h528.3c7.8,22,25.1,39.3,47.1,47.1V777.1z"/>
</g>
</svg>
