<?xml version="1.0" encoding="utf-8"?>
<!-- Generator: Adobe Illustrator 21.0.2, SVG Export Plug-In . SVG Version: 6.00 Build 0)  -->
<svg version="1.1" id="图层_1" xmlns="http://www.w3.org/2000/svg" xmlns:xlink="http://www.w3.org/1999/xlink" x="0px" y="0px"
	 viewBox="0 0 1024 1024" style="enable-background:new 0 0 1024 1024;" xml:space="preserve">
<g>
	<path d="M792,459.7c0-191.8-155.5-347.2-347.2-347.2C253,112.4,97.5,267.9,97.5,459.7S253,806.9,444.8,806.9S792,651.4,792,459.7z
		 M444.8,711.1c-138.9,0-251.5-112.6-251.5-251.5s112.6-251.5,251.5-251.5s251.5,112.6,251.5,251.5
		C696.2,598.5,583.6,711.1,444.8,711.1z"/>
	<path d="M911.8,843.2L744,675.4L659.3,760l167.9,167.9c19.5,19.5,51.2,19.5,70.7,0l14-14C931.4,894.4,931.4,862.8,911.8,843.2z"/>
	<path d="M563.5,429.7h-88.8V341c0-13.8-11.2-25-25-25h-9.9c-13.8,0-25,11.2-25,25v88.8H326c-13.8,0-25,11.2-25,25v9.9
		c0,13.8,11.2,25,25,25h88.8v88.8c0,13.8,11.2,25,25,25h9.9c13.8,0,25-11.2,25-25v-88.8h88.8c13.8,0,25-11.2,25-25v-9.9
		C588.5,440.9,577.3,429.7,563.5,429.7z"/>
</g>
</svg>
