<?xml version="1.0" encoding="utf-8"?>
<!-- Generator: Adobe Illustrator 21.0.2, SVG Export Plug-In . SVG Version: 6.00 Build 0)  -->
<svg version="1.1" id="图层_1" xmlns="http://www.w3.org/2000/svg" xmlns:xlink="http://www.w3.org/1999/xlink" x="0px" y="0px"
	 viewBox="0 0 1024 1024" style="enable-background:new 0 0 1024 1024;" xml:space="preserve">
<g>
	<path d="M840,183h-59.7v-59.7c0-33-26.7-59.7-59.7-59.7s-59.7,26.7-59.7,59.7V183H362.2v-59.7c0-33-26.7-59.7-59.7-59.7
		s-59.7,26.7-59.7,59.7V183H183c-33,0-59.7,26.7-59.7,59.7v657.1c0,33,26.7,59.7,59.7,59.7H840c33,0,59.7-26.7,59.7-59.7V242.7
		C899.8,209.7,873,183,840,183z M840,840H183V362.2H840V840z"/>
	<rect x="601.1" y="541.4" width="179.2" height="179.2"/>
</g>
</svg>
