<?xml version="1.0" encoding="utf-8"?>
<!-- Generator: Adobe Illustrator 21.0.2, SVG Export Plug-In . SVG Version: 6.00 Build 0)  -->
<svg version="1.1" id="图层_1" xmlns="http://www.w3.org/2000/svg" xmlns:xlink="http://www.w3.org/1999/xlink" x="0px" y="0px"
	 viewBox="0 0 1024 1024" style="enable-background:new 0 0 1024 1024;" xml:space="preserve">
<g>
	<path d="M64,97v832h896V97H64z M896,865H128V289h768V865z"/>
	<rect x="192" y="481" width="64" height="192"/>
	<rect x="768" y="481" width="64" height="192"/>
	<path d="M361.8,605.2c20.8-27.4,41-38.2,57.7-38.2c20.1,0,40.1,5.1,60.2,15.5c0.9,0.5,1.8,1,2.7,1.6c15.2,10.5,35.1,21,50.1,31.5
		c20.6,10.8,46.2,16.2,71.9,16.2c31.6,0,63.1-20.8,94.6-62.3c7.7-10.2,6.1-25.1-3.3-33.6l-2-1.8c-9.6-8.6-24-7.6-32.5,2.3
		c-22.9,26.6-39.9,41.4-56.9,41.4c-20.2,5.4-40.4-5-60.5-15.6c-0.7-0.4-1.5-0.8-2.1-1.3c-14.7-10.1-33.6-20.2-48.4-30.4
		c-1.3-0.9-2.7-1.6-4.1-2.2c-24.7-10.2-44.8-15.3-69.7-15.3c-31.5,0-63.1,20.8-94.6,62.3c-7.7,10.2-6.1,25.1,3.3,33.6
		C338.3,618.1,353.5,616.2,361.8,605.2z"/>
</g>
</svg>
