<?xml version="1.0" encoding="utf-8"?>
<!-- Generator: Adobe Illustrator 21.0.2, SVG Export Plug-In . SVG Version: 6.00 Build 0)  -->
<svg version="1.1" id="图层_1" xmlns="http://www.w3.org/2000/svg" xmlns:xlink="http://www.w3.org/1999/xlink" x="0px" y="0px"
	 viewBox="0 0 1024 1024" style="enable-background:new 0 0 1024 1024;" xml:space="preserve">
<g>
	<path d="M887.1,101.5h-750c-22.1,0-40,17.9-40,40v750c0,22.1,17.9,40,40,40h750c22.1,0,40-17.9,40-40v-750
		C927.1,119.4,909.2,101.5,887.1,101.5z M877.1,881.5h-730v-730h730V881.5z"/>
	<path d="M398.9,466.9l63.6-63.6L348.9,289.7l68.2-68.2h-180c-11,0-20,9-20,20v180l68.2-68.2L398.9,466.9z"/>
	<path d="M607.1,811.5h180c11,0,20-9,20-20v-180l-68.2,68.2L625.3,566.1l-63.6,63.6l113.6,113.6L607.1,811.5z"/>
</g>
</svg>
