<?xml version="1.0" encoding="utf-8"?>
<!-- Generator: Adobe Illustrator 21.0.2, SVG Export Plug-In . SVG Version: 6.00 Build 0)  -->
<svg version="1.1" id="图层_1" xmlns="http://www.w3.org/2000/svg" xmlns:xlink="http://www.w3.org/1999/xlink" x="0px" y="0px"
	 viewBox="0 0 1024 1024" style="enable-background:new 0 0 1024 1024;" xml:space="preserve">
<g>
	<path d="M765.3,432.4c0-184.4-149.5-333.9-333.9-333.9S97.5,248,97.5,432.4S247,766.3,431.4,766.3S765.3,616.8,765.3,432.4z
		 M431.4,655c-122.9,0-222.6-99.7-222.6-222.6c0-122.9,99.7-222.6,222.6-222.6S654,309.4,654,432.4C654,555.3,554.3,655,431.4,655z"
		/>
	<path d="M911.2,794.1L753.8,636.7L635.7,754.8l157.4,157.4c21.7,21.7,57,21.7,78.7,0l39.4-39.4
		C932.9,851.1,932.9,815.8,911.2,794.1z"/>
</g>
</svg>
