<?xml version="1.0" encoding="utf-8"?>
<!-- Generator: Adobe Illustrator 21.0.2, SVG Export Plug-In . SVG Version: 6.00 Build 0)  -->
<svg version="1.1" id="图层_1" xmlns="http://www.w3.org/2000/svg" xmlns:xlink="http://www.w3.org/1999/xlink" x="0px" y="0px"
	 viewBox="0 0 1024 1024" style="enable-background:new 0 0 1024 1024;" xml:space="preserve">
<path d="M922.7,737l-3.3-5.1c1.8,1.8-8.8-11.1-8.8-11.1s-9.9-12.2-36.1-34.9c-21.4-18.6-48.2-40-69.1-54.4
	c-25.4-17.6-43.1-28.8-41.9-28.1l-18.7-9.7c-8.2-4.2-21.8-4.7-31.5-1.2c-8.7,3.1-16.4,10.3-19.9,16.7c1.5-2.9-6,5.8-21.4,34.5
	c-6.6,12.5-14.3,30.3-23.6,47.6c-12.6,23.7-45.4,47.1-78.1,27.7c-41.4-24.6-94.7-58.5-149.4-113c-63.4-63-98.1-111.4-117.8-157.4
	c-7.2-16.7-3.9-51.8,22.3-65.2c25.9-13.2,40.8-16.6,57.1-26.8c14.8-9.6,11.9-6.5,29.1-18.3c0.7-0.5,6.2-5.6,7-6.1
	c0,0,1.3-1.4,2.3-2.5c10.8-10.7,13.6-25,8.1-39.1l-2.3-7.3c0,0-12.5-29.6-31.5-63.5c-10.1-18-24.7-40.3-36.1-56.2
	c-30.8-42.9-58.3-56.2-58.3-56.2s-7.7-4.2-11.7-6.1c-15.6-6.9-29.5-4.9-43.1,1.2c-29.5,11.5-46.3,27.1-69.1,46.7
	c-49.8,43-84.7,102.6-77.8,154.6c10.9,81.4,108.3,260.7,235.8,387.4c127.5,126.9,307.8,223.9,389.5,234.6
	c54.9,7.3,101.4-22.1,147.7-66.8c16.3-15.7,37.6-41.6,48.6-66.2C927.1,779.2,933.1,752.4,922.7,737L922.7,737L922.7,737z"/>
</svg>
