<?xml version="1.0" encoding="utf-8"?>
<!-- Generator: Adobe Illustrator 21.1.0, SVG Export Plug-In . SVG Version: 6.00 Build 0)  -->
<svg version="1.1" id="图层_1" xmlns="http://www.w3.org/2000/svg" xmlns:xlink="http://www.w3.org/1999/xlink" x="0px" y="0px"
	 viewBox="0 0 1024 1024" style="enable-background:new 0 0 1024 1024;" xml:space="preserve">
<g id="图层_1_1_">
</g>
<path d="M513,928.2c-226.9,0-415-130.7-415-415C98.9,284.3,284.2,99,513,98.2c225.5,0,409.5,169.3,415,373.5
	c0,130.3-80.2,249-207.5,249h-83c-39.1,0-41.5,13.7-41.5,124.5c0.5,22.2-8.1,43.5-23.8,59.2C556.6,920.1,535.2,928.7,513,928.2
	L513,928.2z M181,513.2c0,344,332,332,332,332c-4.5-27.5-5.9-53.7-2.1-82.5c0.5-31.8,13.7-66.2,37.3-89.8
	c23.6-23.6,56-36.4,89.3-35.2h83c89.9,0,124.5-75.9,124.5-166c-2.8-166.4-143.9-290.5-332-290.5C513,181.2,181,205.6,181,513.2
	L181,513.2z M298.6,402c-36.9,0-66.8,29.9-66.8,66.8s29.9,66.8,66.8,66.8s66.8-29.9,66.8-66.8S335.5,402,298.6,402L298.6,402z
	 M416.2,252.1c-17.7,0-34.6,7.1-47.1,19.6s-19.4,29.5-19.3,47.2c0,36.7,29.7,66.4,66.4,66.4s66.4-29.7,66.4-66.4
	c0.1-17.7-6.8-34.7-19.3-47.2C450.9,259.2,433.9,252.1,416.2,252.1L416.2,252.1z M609.9,252.1c-17.7,0-34.6,7.1-47.1,19.6
	s-19.4,29.5-19.3,47.2c-0.2,17.7,6.7,34.7,19.2,47.2s29.5,19.4,47.2,19.2c36.7,0,66.4-29.7,66.4-66.4c0.3-17.7-6.6-34.9-19.1-47.4
	C644.7,258.9,627.6,251.9,609.9,252.1L609.9,252.1z M727.5,402c-36.9,0-66.8,29.9-66.8,66.8s29.9,66.8,66.8,66.8
	c17.7,0.1,34.8-6.9,47.3-19.4c12.5-12.6,19.4-29.6,19.2-47.4C793.4,432.2,764,402.7,727.5,402L727.5,402z"/>
</svg>
