<?xml version="1.0" encoding="utf-8"?>
<!-- Generator: Adobe Illustrator 21.0.2, SVG Export Plug-In . SVG Version: 6.00 Build 0)  -->
<svg version="1.1" id="图层_1" xmlns="http://www.w3.org/2000/svg" xmlns:xlink="http://www.w3.org/1999/xlink" x="0px" y="0px"
	 viewBox="0 0 1024 1024" style="enable-background:new 0 0 1024 1024;" xml:space="preserve">
<g>
	<path d="M511.5,64c-247.4,0-448,200.6-448,448s200.6,448,448,448s448-200.6,448-448S758.9,64,511.5,64z M511.5,848
		c-185.6,0-336-150.4-336-336s150.4-336,336-336s336,150.4,336,336S697.1,848,511.5,848z"/>
	<path d="M679.5,456h-336c-30.8,0-56,25.2-56,56s25.2,56,56,56h336c30.8,0,56-25.2,56-56S710.3,456,679.5,456z"/>
</g>
</svg>
