<?xml version="1.0" encoding="utf-8"?>
<!-- Generator: Adobe Illustrator 21.1.0, SVG Export Plug-In . SVG Version: 6.00 Build 0)  -->
<svg version="1.1" id="图层_2" xmlns="http://www.w3.org/2000/svg" xmlns:xlink="http://www.w3.org/1999/xlink" x="0px" y="0px"
	 viewBox="0 0 1024 1024" enable-background="new 0 0 1024 1024" xml:space="preserve">
<path d="M875.186,103.152h-504c-46.2,0-84,37.8-84,84V326H147.667c-46.2,0-84,37.8-84,84v428c0,46.2,37.8,84,84,84h504
	c46.2,0,84-37.8,84-84V699.152h139.519c46.2,0,84-37.8,84-84v-428C959.186,140.952,921.386,103.152,875.186,103.152z M609.667,796
	h-420V452h97.519h126h196.481v121.152v126V796z M833.186,573.152h-97.519V410c0-46.2-37.8-84-84-84H413.186v-96.848h420
	L833.186,573.152L833.186,573.152z"/>
</svg>
