<?xml version="1.0" encoding="utf-8"?>
<!-- Generator: Adobe Illustrator 21.0.2, SVG Export Plug-In . SVG Version: 6.00 Build 0)  -->
<svg version="1.1" id="图层_1" xmlns="http://www.w3.org/2000/svg" xmlns:xlink="http://www.w3.org/1999/xlink" x="0px" y="0px"
	 viewBox="0 0 1024 1024" style="enable-background:new 0 0 1024 1024;" xml:space="preserve">
<g>
	<path d="M98,98v830h830V98H98z M868.7,868.7H157.3V157.3h711.4V868.7z"/>
	<polygon points="335.1,453.7 335.1,513 453.7,513 453.7,572.3 335.1,572.3 335.1,631.6 453.7,631.6 453.7,750.1 572.3,750.1 
		572.3,631.6 690.9,631.6 690.9,572.3 572.3,572.3 572.3,513 690.9,513 690.9,453.7 572.3,453.7 750.1,275.9 641.7,275.9 513,404.6 
		384.3,275.9 275.9,275.9 453.7,453.7 	"/>
</g>
</svg>
