<?xml version="1.0" encoding="utf-8"?>
<!-- Generator: Adobe Illustrator 21.0.2, SVG Export Plug-In . SVG Version: 6.00 Build 0)  -->
<svg version="1.1" id="图层_1" xmlns="http://www.w3.org/2000/svg" xmlns:xlink="http://www.w3.org/1999/xlink" x="0px" y="0px"
	 viewBox="0 0 1024 1024" style="enable-background:new 0 0 1024 1024;" xml:space="preserve">
<path d="M923.2,141.6c-14-6.1-30.3-10-47.4-10.7c-55.8-9.7-131.4,5.2-191.4,37.6c17.7-43.7-49.7-24.5-75.3-17.8
	c-82.5,21.6-156.5,60.6-222.6,113.9c5.8-37.1-40.6-15.4-73.8,12.3c-65.5,54.9-117.6,120.4-149.4,199.6
	c-28.3,70.6-28.1,142.1-2.7,208.6c85.9-95.8,167.6-187.4,272.8-279.5c117.8-103.2,258.5-182.6,340.1-189.7
	C465.8,372.6,262.2,631.5,64.1,896h343.1v-13.3H100.3c5.8-2.6,10.9-5.9,15.9-11.5c22.8-25.2,41.6-54.2,65.8-78.3
	c30.5-30.2,32.3-27.7,58.5-28.4c51-1.3,102.6-5.1,152.6-14.4c106.6-19.7,197.5-68.8,267-153.4c17.3-21.1,34.2-57.1-10.7-55.6
	c15.8-7.5,27.1-12.1,37.5-18c81.6-45.9,157.3-98.6,205.3-181.7c13-22.4,27.7-65.3-16-57c24.1-23.8,47.9-43.3,66.9-66.8
	C971.4,182.9,964,158.8,923.2,141.6L923.2,141.6z"/>
</svg>
