<?xml version="1.0" encoding="utf-8"?>
<!-- Generator: Adobe Illustrator 21.0.2, SVG Export Plug-In . SVG Version: 6.00 Build 0)  -->
<svg version="1.1" id="图层_1" xmlns="http://www.w3.org/2000/svg" xmlns:xlink="http://www.w3.org/1999/xlink" x="0px" y="0px"
	 viewBox="0 0 1024 1024" style="enable-background:new 0 0 1024 1024;" xml:space="preserve">
<g>
	<path d="M798.7,478.2c0-191.8-155.5-347.2-347.2-347.2S104.2,286.5,104.2,478.2c0,191.8,155.5,347.2,347.2,347.2
		S798.7,670,798.7,478.2z M451.4,729.7C312.6,729.7,200,617.1,200,478.2s112.6-251.5,251.5-251.5S703,339.3,703,478.2
		C702.9,617.1,590.3,729.7,451.4,729.7z"/>
	<path d="M918.5,861.8L750.7,694L666,778.6l167.9,167.9c19.5,19.5,51.2,19.5,70.7,0l14-14C938,913,938,881.3,918.5,861.8z"/>
	<path d="M570.1,448.3H332.8c-13.8,0-25,11.2-25,25v9.9c0,13.8,11.2,25,25,25h237.4c13.8,0,25-11.2,25-25v-9.9
		C595.1,459.5,583.9,448.3,570.1,448.3z"/>
</g>
</svg>
