<?xml version="1.0" encoding="utf-8"?>
<!-- Generator: Adobe Illustrator 21.0.2, SVG Export Plug-In . SVG Version: 6.00 Build 0)  -->
<svg version="1.1" id="图层_1" xmlns="http://www.w3.org/2000/svg" xmlns:xlink="http://www.w3.org/1999/xlink" x="0px" y="0px"
	 viewBox="0 0 1024 1024" style="enable-background:new 0 0 1024 1024;" xml:space="preserve">
<path d="M835.8,98H190.2C139.3,98,98,139.3,98,190.2v645.6c0,50.9,41.3,92.2,92.2,92.2h645.6c50.9,0,92.2-41.3,92.2-92.2V190.2
	C928,139.3,886.7,98,835.8,98z M605.2,328.6v138.3H420.8V328.6H605.2z M605.2,513v138.3H420.8V513H605.2z M190.2,328.6h184.4v138.3
	H190.2V328.6z M190.2,513h184.4v138.3H190.2V513z M190.2,835.8V697.4h184.4v138.3H190.2z M420.8,835.8V697.4h184.4v138.3H420.8z
	 M835.8,835.8H651.3V697.4h184.4V835.8z M835.8,651.3H651.3V513h184.4V651.3z M835.8,466.9H651.3V328.6h184.4V466.9z"/>
</svg>
