<?xml version="1.0" encoding="utf-8"?>
<!-- Generator: Adobe Illustrator 21.1.0, SVG Export Plug-In . SVG Version: 6.00 Build 0)  -->
<svg version="1.1" id="图层_1" xmlns="http://www.w3.org/2000/svg" xmlns:xlink="http://www.w3.org/1999/xlink" x="0px" y="0px"
	 viewBox="0 0 1024 1024" style="enable-background:new 0 0 1024 1024;" xml:space="preserve">
<path d="M897,126.7H127c-16.5,0-30,13.5-30,30v709c0,16.5,13.5,30,30,30h770c16.5,0,30-13.5,30-30v-709
	C927,140.2,913.5,126.7,897,126.7z M734.3,274h100v130h-100V274z M549.1,274h111v130h-111V274z M363.8,274h111v130h-111V274z
	 M189.6,274h100v130h-100V274z M189.6,477.9h100v130h-100V477.9z M289.6,800.8h-100v-120h100V800.8z M363.8,477.9h111v130h-111
	V477.9z M474.8,800.8h-111v-120h111V800.8z M549.1,477.9h111v130h-111V477.9z M660.1,800.8h-111v-120h111V800.8z M734.3,477.9h100
	v130h-100V477.9z M834.4,800.8h-100v-120h100V800.8z"/>
</svg>
