<?xml version="1.0" encoding="utf-8"?>
<!-- Generator: Adobe Illustrator 21.0.2, SVG Export Plug-In . SVG Version: 6.00 Build 0)  -->
<svg version="1.1" id="图层_1" xmlns="http://www.w3.org/2000/svg" xmlns:xlink="http://www.w3.org/1999/xlink" x="0px" y="0px"
	 viewBox="0 0 1024 1024" style="enable-background:new 0 0 1024 1024;" xml:space="preserve">
<g>
	<path d="M783,459.7c0-191.8-155.5-347.2-347.2-347.2S88.5,267.9,88.5,459.7S244,806.9,435.7,806.9S783,651.4,783,459.7z
		 M435.7,711.1c-138.9,0-251.5-112.6-251.5-251.5s112.6-251.5,251.5-251.5s251.5,112.6,251.5,251.5S574.6,711.1,435.7,711.1z"/>
	<path d="M902.8,843.2L734.9,675.4L650.3,760l167.9,167.9c19.5,19.5,51.2,19.5,70.7,0l14-14C922.3,894.4,922.3,862.8,902.8,843.2z"
		/>
	<polygon points="385.7,343.1 385.7,376.2 419.2,376.2 419.2,609.7 485.7,609.7 485.7,309.7 452.4,309.7 	"/>
</g>
</svg>
