<?xml version="1.0" encoding="utf-8"?>
<!-- Generator: Adobe Illustrator 21.0.2, SVG Export Plug-In . SVG Version: 6.00 Build 0)  -->
<svg version="1.1" id="图层_1" xmlns="http://www.w3.org/2000/svg" xmlns:xlink="http://www.w3.org/1999/xlink" x="0px" y="0px"
	 viewBox="0 0 1024 1024" style="enable-background:new 0 0 1024 1024;" xml:space="preserve">
<g>
	<path d="M640.3,390.1L444.8,585.6l-61.1-61.1c-17.5-17.5-45.9-17.5-63.4,0c-17.5,17.5-17.5,45.9,0,63.4l92.8,92.8
		c17.5,17.5,45.9,17.5,63.4,0l227.2-227.2c17.5-17.5,17.5-45.9,0-63.4C686.2,372.6,657.8,372.6,640.3,390.1z"/>
	<path d="M512,65C264.6,65,64,265.6,64,513c0,247.4,200.6,448,448,448s448-200.6,448-448C960,265.6,759.4,65,512,65z M512,826.6
		c-173.2,0-313.6-140.4-313.6-313.6c0-173.2,140.4-313.6,313.6-313.6S825.6,339.8,825.6,513C825.6,686.2,685.2,826.6,512,826.6z"/>
</g>
</svg>
