<?xml version="1.0" encoding="utf-8"?>
<!-- Generator: Adobe Illustrator 21.0.2, SVG Export Plug-In . SVG Version: 6.00 Build 0)  -->
<svg version="1.1" id="图层_1" xmlns="http://www.w3.org/2000/svg" xmlns:xlink="http://www.w3.org/1999/xlink" x="0px" y="0px"
	 viewBox="0 0 1024 1024" style="enable-background:new 0 0 1024 1024;" xml:space="preserve">
<g>
	<path d="M690.7,466.7H556.3V332.3c0-24.7-20.1-44.8-44.8-44.8s-44.8,20.1-44.8,44.8v179.2c0,24.7,20.1,44.8,44.8,44.8h179.2
		c24.7,0,44.8-20.1,44.8-44.8C735.5,486.8,715.4,466.7,690.7,466.7z"/>
	<path d="M511.5,63.5c-247.4,0-448,200.6-448,448c0,247.4,200.6,448,448,448s448-200.6,448-448C959.5,264.1,758.9,63.5,511.5,63.5z
		 M511.5,825.1c-173.2,0-313.6-140.4-313.6-313.6c0-173.2,140.4-313.6,313.6-313.6s313.6,140.4,313.6,313.6
		C825.1,684.7,684.7,825.1,511.5,825.1z"/>
</g>
</svg>
