<?xml version="1.0" encoding="utf-8"?>
<!-- Generator: Adobe Illustrator 21.1.0, SVG Export Plug-In . SVG Version: 6.00 Build 0)  -->
<svg version="1.1" id="图层_1" xmlns="http://www.w3.org/2000/svg" xmlns:xlink="http://www.w3.org/1999/xlink" x="0px" y="0px"
	 viewBox="0 0 1024 1024" style="enable-background:new 0 0 1024 1024;" xml:space="preserve">
<path d="M894.9,370.5c0-150.7-121.9-272.7-272.3-272.7c-67.4,0-128.1,25.8-175.4,66.6c-10.3,9.9-16.9,23.7-16.9,39.2
	c0,30.1,24.4,54.5,54.5,54.5c13.3,0,25-5.3,34.4-13.2l0.3,0.2c28.1-23.4,63.8-38.1,103.2-38.1c90.2,0,163.4,73.3,163.4,163.6
	c0,50-22.9,94.2-58.1,124.1L461.2,760.4c-29.9,35.3-74.1,58.3-124,58.3c-90.2,0-163.4-73.3-163.4-163.7c0-49.9,22.9-94.2,58.1-124.1
	L346.8,417c9.7-8.7,22.2-14.5,36.1-14.5c30.1,0,54.5,24.4,54.5,54.5c0,11.7-4.5,21.8-10.6,30.8L316.6,598.6l0.4,0.4
	c-8.6,9.7-14.3,22.1-14.3,36c0,30.2,24.4,54.5,54.5,54.5c13.9,0,26.3-5.6,36-14.3l131.6-131.3c25.8-29,21.6-68.9,21.6-87.1
	c0-90.3-73.2-163.7-163.4-163.7c-41,0-78,15.7-106.7,40.6l-8.9,8.1L154.9,453.7c-54.9,49.8-90,121.1-90,201.2
	c0,150.7,121.9,272.7,272.3,272.7c79.6,0,150.4-34.8,200.2-89.3l0.1,0.1L805.8,571l-0.1-0.1C860.1,521,894.9,450.1,894.9,370.5z"/>
</svg>
