<?xml version="1.0" encoding="utf-8"?>
<!-- Generator: Adobe Illustrator 21.0.2, SVG Export Plug-In . SVG Version: 6.00 Build 0)  -->
<svg version="1.1" id="图层_1" xmlns="http://www.w3.org/2000/svg" xmlns:xlink="http://www.w3.org/1999/xlink" x="0px" y="0px"
	 viewBox="0 0 1024 1024" style="enable-background:new 0 0 1024 1024;" xml:space="preserve">
<g>
	<path d="M598.6,403.4c-11.3-11.3-24.9-20.4-39.7-26.5c-14.8-6.1-30.8-9.3-46.8-9.3c-16,0-32,3.2-46.8,9.3
		c-14.8,6.1-28.3,15.2-39.7,26.5c-11.3,11.3-20.4,24.9-26.5,39.7c-6.1,14.8-9.3,30.8-9.3,46.8c0,16,3.2,32,9.3,46.8
		c6.1,14.8,15.2,28.4,26.5,39.7c11.3,11.3,24.9,20.4,39.7,26.5c14.8,6.1,30.8,9.3,46.8,9.3c16,0,32-3.2,46.8-9.3
		c14.8-6.1,28.4-15.2,39.7-26.5c11.3-11.3,20.4-24.9,26.5-39.7c6.1-14.8,9.3-30.8,9.3-46.8c0-16-3.2-32-9.3-46.8
		C618.9,428.2,609.9,414.7,598.6,403.4z"/>
	<path d="M952.1,460.3c0,0-0.5-11.6-108.3-112.4C689.7,214.6,552.4,195.5,450.2,208.1c-102.2,12.6-179,67.6-185.2,71.1
		c-48.5,27-122.3,99.1-146.9,124.7c-24.6,25.6-38.6,36.6-46.8,53.3c-19.5,40,7.2,79.9,7.2,79.9l68,68.3c0,0,153.1,169.3,354,169.3
		c200.9,0,296.2-86.3,336.5-117.7c40.3-31.4,89.8-88.5,115.1-122.3C969.9,496.8,952.1,460.3,952.1,460.3z M512.1,695.1
		c-113.4,0-205.3-91.9-205.3-205.3c0-113.4,91.9-205.3,205.3-205.3s205.3,91.9,205.3,205.3C717.4,603.2,625.5,695.1,512.1,695.1z"/>
</g>
</svg>
