<?xml version="1.0" encoding="utf-8"?>
<!-- Generator: Adobe Illustrator 21.0.2, SVG Export Plug-In . SVG Version: 6.00 Build 0)  -->
<svg version="1.1" id="图层_1" xmlns="http://www.w3.org/2000/svg" xmlns:xlink="http://www.w3.org/1999/xlink" x="0px" y="0px"
	 viewBox="0 0 1024 1024" style="enable-background:new 0 0 1024 1024;" xml:space="preserve">
<g id="图层_1_1_">
</g>
<g id="图层_3">
	<g>
		<g>
			<path d="M812.1,516.1c-11.3,0-22.2,4.5-30.2,12.7c-8,8.2-12.5,19.2-12.5,30.8V840c0,0.7-0.5,1.2-1.2,1.2H639.8
				c-0.3,0-0.6-0.1-0.8-0.3c-0.2-0.2-0.3-0.5-0.3-0.8V656.3c0-48.6-38.8-88.2-86.4-88.2h-94.9c-47.6,0-86.4,39.6-86.4,88.2V840
				c0,0.7-0.5,1.2-1.2,1.2H237c-0.3,0-0.6-0.1-0.8-0.3c-0.2-0.2-0.3-0.5-0.3-0.8V559.6c0-11.5-4.5-22.6-12.4-30.8
				s-18.8-12.7-30.2-12.7c-11.3,0-22.2,4.5-30.2,12.7c-8,8.2-12.5,19.3-12.5,30.8V840c0,48.6,38.8,88.2,86.4,88.2h132.8
				c47.6,0,86.4-39.6,86.4-88.2V656.3c0-0.7,0.5-1.2,1.2-1.2h94.9c0.6,0,1.2,0.5,1.2,1.2V840c0,48.6,38.8,88.2,86.4,88.2h128.5
				c47.6,0,86.4-39.6,86.4-88.2V559.6c0-11.5-4.5-22.6-12.5-30.8C834.3,520.6,823.4,516.1,812.1,516.1z M921.6,396.3L553.8,115.5
				c-23-23.2-60.4-23.2-83.5,0L102.6,396.3c-19,5-33.2,21.6-33.2,42.3c0,24.6,19.8,44.5,44.3,44.5c7.7,0,14.8,0,14.8,0h13.1
				l328.9-241.7c23.1-23.2,60.4-23.2,83.5,0l328.9,241.7h13.1c0,0,7.1,0,14.8,0c24.5,0,44.3-19.9,44.3-44.5
				C954.8,418,940.6,401.4,921.6,396.3z"/>
		</g>
	</g>
</g>
</svg>
