<?xml version="1.0" encoding="utf-8"?>
<!-- Generator: Adobe Illustrator 21.1.0, SVG Export Plug-In . SVG Version: 6.00 Build 0)  -->
<svg version="1.1" id="图层_1" xmlns="http://www.w3.org/2000/svg" xmlns:xlink="http://www.w3.org/1999/xlink" x="0px" y="0px"
	 viewBox="0 0 1024 1024" style="enable-background:new 0 0 1024 1024;" xml:space="preserve">
<g id="图层_1_1_">
</g>
<path d="M-20.9,712.9h0.4l-0.2-0.2L-20.9,712.9z M807.8,510.1c1.5-12.3,2.3-24.7,2.3-37.4c0-165.7-132.8-300-296.5-300
	C349.8,172.7,217,307,217,472.7c0,9.6,0.5,19.1,1.3,28.5l-155,137.2l31.7,32l246.3-218c7.7-7.8,20.3-7.8,28,0l256.8,227.3l31.7-32
	l-25.4-22.5l104.9-92.8c7.7-7.8,20.3-7.8,28,0l161.9,143.3l31.7-32L807.8,510.1z M771,477.6l-5.8-5.2c-7.7-7.8-20.3-7.8-28,0
	L598.4,595.2L369.3,392.4c-7.7-7.8-20.3-7.8-28,0L256.9,467c3-141.1,116.9-254.5,257-254.5c142,0,257.1,116.5,257.1,260.2
	C771.1,474.3,771.1,475.9,771,477.6z M721.8,813.4H305.3c-11,0-19.9,8.9-19.9,19.9s8.9,19.9,19.9,19.9h416.4
	c11,0,19.9-8.9,19.9-19.9S732.8,813.4,721.8,813.4z"/>
</svg>
