<?xml version="1.0" encoding="utf-8"?>
<!-- Generator: Adobe Illustrator 21.1.0, SVG Export Plug-In . SVG Version: 6.00 Build 0)  -->
<svg version="1.1" id="图层_1" xmlns="http://www.w3.org/2000/svg" xmlns:xlink="http://www.w3.org/1999/xlink" x="0px" y="0px"
	 viewBox="0 0 1024 1024" style="enable-background:new 0 0 1024 1024;" xml:space="preserve">
<g id="图层_1_1_">
</g>
<path d="M219.6,772.1l-17.3,17.3c-9.6,9.6-9.6,25,0,34.6c9.6,9.5,25,9.5,34.6,0l17.3-17.3c9.6-9.5,9.6-25,0-34.6
	S229.1,762.5,219.6,772.1z M146.9,488.8h-24.5c-13.5,0-24.5,11-24.5,24.5s11,24.5,24.5,24.5h24.5c13.5,0,24.5-11,24.5-24.5
	C171.4,499.7,160.4,488.8,146.9,488.8z M219.6,254.4c9.6,9.6,25,9.6,34.6,0c9.5-9.6,9.5-25,0-34.6l-17.3-17.3
	c-9.6-9.6-25-9.6-34.6,0c-9.6,9.6-9.6,25,0,34.6L219.6,254.4z M513,854.8c-13.5,0-24.5,11-24.5,24.5v24.5c0,13.5,11,24.5,24.5,24.5
	s24.5-11,24.5-24.5v-24.5C537.5,865.8,526.5,854.8,513,854.8z M513,220.6c-162.1,0-293.5,131.4-293.5,293.5S350.9,807.6,513,807.6
	s293.5-131.4,293.5-293.5S675.1,220.6,513,220.6z M509.8,755.7C374.6,755.7,265,646.1,265,510.9S374.5,266,509.8,266
	c135.2,0,244.8,109.6,244.8,244.8S645,755.7,509.8,755.7z M903.5,488.8H879c-13.5,0-24.5,11-24.5,24.5s11,24.5,24.5,24.5h24.5
	c13.5,0,24.5-11,24.5-24.5C928,499.7,917,488.8,903.5,488.8z M789.2,202.5l-17.3,17.3c-9.6,9.6-9.6,25,0,34.6c9.6,9.6,25,9.6,34.6,0
	l17.3-17.3c9.6-9.5,9.6-25,0-34.6C814.2,192.9,798.7,192.9,789.2,202.5z M806.4,772.1c-9.6-9.5-25-9.5-34.6,0
	c-9.6,9.6-9.6,25,0,34.6l17.3,17.3c9.6,9.5,25,9.5,34.6,0c9.6-9.6,9.6-25,0-34.6L806.4,772.1z M513,171.6c13.5,0,24.5-11,24.5-24.5
	v-24.5c0-13.5-11-24.5-24.5-24.5s-24.5,11-24.5,24.5v24.5C488.5,160.7,499.5,171.6,513,171.6z"/>
</svg>
