<?xml version="1.0" encoding="utf-8"?>
<!-- Generator: Adobe Illustrator 21.1.0, SVG Export Plug-In . SVG Version: 6.00 Build 0)  -->
<svg version="1.1" id="图层_1" xmlns="http://www.w3.org/2000/svg" xmlns:xlink="http://www.w3.org/1999/xlink" x="0px" y="0px"
	 viewBox="0 0 1024 1024" style="enable-background:new 0 0 1024 1024;" xml:space="preserve">
<g id="图层_1_1_">
</g>
<path d="M318.1,237.8c54.4,0,104,20.4,141.5,53.9l32.3-26.8c-45.3-42.3-106.4-68.3-173.7-68.3c-139.7,0-253,111.9-253,250
	c0,51,15.4,98.4,42,137.9l32.3-26.9c-20.4-32.2-32.3-70.2-32.3-111C107.2,331.3,201.6,237.8,318.1,237.8z M676.1,259.3
	c-143.6,0-262.3,105.3-281.5,242.1c-20.2-8.5-42.4-13.2-65.8-13.2c-93.1,0-168.5,74.7-168.5,166.8c0,92,75.2,166.5,168.1,166.8l0,0
	h358.4v-0.2c152-5.6,273.5-129.3,273.5-281C960.4,385.2,833.1,259.3,676.1,259.3z M686.8,780.4v0.2H328.4l0,0
	c-69.7-0.2-126-56.2-126-125.2c0-69.1,56.6-125.2,126.5-125.2c46.8,0,87.7,25.2,109.5,62.6h1.3c-3.8-16.8-5.8-34.3-5.8-52.3
	c0-132.6,108.5-240.1,242.2-240.1c133.8,0,242.2,107.5,242.2,240.1C918.3,669.6,815.6,774.8,686.8,780.4z"/>
</svg>
