<?xml version="1.0" encoding="utf-8"?>
<!-- Generator: Adobe Illustrator 21.1.0, SVG Export Plug-In . SVG Version: 6.00 Build 0)  -->
<svg version="1.1" id="图层_1" xmlns="http://www.w3.org/2000/svg" xmlns:xlink="http://www.w3.org/1999/xlink" x="0px" y="0px"
	 viewBox="0 0 1024 1024" style="enable-background:new 0 0 1024 1024;" xml:space="preserve">
<g id="图层_1_1_">
</g>
<path d="M519.5,784.6c-11.1,0-20.1,9-20.1,20.1v101.1c0,11.1,9,20.1,20.1,20.1c11.1,0,20.1-9,20.1-20.1V804.7
	C539.6,793.6,530.6,784.6,519.5,784.6z M580.3,624.1h-0.4c-11.2,0-20.3,9.1-20.3,20.3v99.9c0,11.2,9.1,20.3,20.3,20.3h0.4
	c11.2,0,20.3-9.1,20.3-20.3v-99.9C600.6,633.2,591.5,624.1,580.3,624.1z M458.5,624.1c-11.1,0-20.1,9-20.1,20.1v100.3
	c0,11.1,9,20.1,20.1,20.1s20.1-9,20.1-20.1V644.2C478.6,633.1,469.6,624.1,458.5,624.1z M641.3,784.6h-0.4
	c-11.2,0-20.3,9.1-20.3,20.3v100.7c0,11.2,9.1,20.3,20.3,20.3h0.4c11.2,0,20.3-9.1,20.3-20.3V804.9
	C661.6,793.7,652.5,784.6,641.3,784.6z M327.3,141.7c52.3,0,100,19.7,135.9,51.9l31.1-25.8c-43.6-41-102.5-66.2-167.4-66.2
	c-134.3,0-243.2,108-243.2,241.2c0,49.2,14.9,94.9,40.4,133.1l31.5-26.2c-19.6-31-31-67.6-31-106.8
	C124.6,231.8,215.4,141.7,327.3,141.7z M671.2,162.6c-138.2,0-252.5,101.4-271,233.2c-19.3-8.1-40.6-12.5-62.8-12.5
	c-89.5,0-162.1,71.9-162.1,160.5s72.6,160.5,162.1,160.5c13.9,0,27.3-1.7,40.1-5v-42c-12.7,4.4-26.3,6.9-40.5,6.9
	c-67.2,0-121.6-53.9-121.6-120.4S269.8,423.4,337,423.4c45,0,84.3,24.2,105.3,60.2h1.8c-3.6-16.2-5.6-32.9-5.6-50.2
	c0-127.4,104.4-230.8,233.2-230.8s233.2,103.3,233.2,230.8c0,87.6-49.3,163.8-122,202.9v44.5C878.4,638.5,945,543.7,945,433.4
	C944.9,283.9,822.4,162.6,671.2,162.6z M701.7,624.1c-11.1,0-20.1,9-20.1,20.1v100.3c0,11.1,9,20.1,20.1,20.1s20.1-9,20.1-20.1
	V644.2C721.8,633.1,712.8,624.1,701.7,624.1z"/>
</svg>
