<?xml version="1.0" encoding="utf-8"?>
<!-- Generator: Adobe Illustrator 21.1.0, SVG Export Plug-In . SVG Version: 6.00 Build 0)  -->
<svg version="1.1" id="图层_1" xmlns="http://www.w3.org/2000/svg" xmlns:xlink="http://www.w3.org/1999/xlink" x="0px" y="0px"
	 viewBox="0 0 1024 1024" style="enable-background:new 0 0 1024 1024;" xml:space="preserve">
<g id="图层_1_1_">
</g>
<g>
	<path d="M513,64.9c-247.4,0-448,200.6-448,448s200.6,448,448,448s448-200.6,448-448S760.4,64.9,513,64.9z M513,876.9
		c-201,0-364-163-364-364s163-364,364-364s364,163,364,364S714,876.9,513,876.9z"/>
	<polygon points="637.7,292.8 523.3,460 502.4,459.7 388.2,292.8 347.9,292.8 311.2,732.9 384.6,732.9 409.8,484.1 423.2,484.1 
		494.6,586.2 531.3,586.2 601.3,480.5 615,480.5 641.3,732.9 714.7,732.9 678,292.8 	"/>
</g>
</svg>
