<?xml version="1.0" encoding="utf-8"?>
<!-- Generator: Adobe Illustrator 21.1.0, SVG Export Plug-In . SVG Version: 6.00 Build 0)  -->
<svg version="1.1" id="图层_1" xmlns="http://www.w3.org/2000/svg" xmlns:xlink="http://www.w3.org/1999/xlink" x="0px" y="0px"
	 viewBox="0 0 1024 1024" style="enable-background:new 0 0 1024 1024;" xml:space="preserve">
<g id="图层_1_1_">
</g>
<g>
	<path d="M856.3,580.6h-19.7V177.1c0-44-36-80-80-80h-489c-44,0-80,36-80,80v403.5h-19.7c-57,0-103.7,46.6-103.7,103.7v138.9
		c0,57,46.6,103.7,103.7,103.7h688.3c57,0,103.7-46.6,103.7-103.7V684.3C959.9,627.3,913.3,580.6,856.3,580.6z M271.6,221.1
		c0-22,18-40,40-40h401c22,0,40,18,40,40v359.5h-140c-20.1,34.7-57.6,58-100.5,58s-80.4-23.3-100.5-58h-140V221.1z M819.6,842.3
		H204.7c-35.2,0-64-28.8-64-64v-49.1c0-35.2,28.8-64,64-64H392c27.2,36.7,70.9,60.5,120.1,60.5s92.9-23.8,120.1-60.5h187.3
		c35.2,0,64,28.8,64,64v49.1h0.1C883.6,813.5,854.8,842.3,819.6,842.3z"/>
	<path d="M411.2,347.1h206c23.1,0,42-18.9,42-42c0-23.1-18.9-42-42-42h-206c-23.1,0-42,18.9-42,42
		C369.2,328.2,388.1,347.1,411.2,347.1z"/>
	<path d="M659.2,439.1c0-23.1-18.9-42-42-42h-206c-23.1,0-42,18.9-42,42c0,23.1,18.9,42,42,42h206
		C640.3,481.1,659.2,462.2,659.2,439.1z"/>
</g>
</svg>
