<?xml version="1.0" encoding="utf-8"?>
<!-- Generator: Adobe Illustrator 21.1.0, SVG Export Plug-In . SVG Version: 6.00 Build 0)  -->
<svg version="1.1" id="图层_1" xmlns="http://www.w3.org/2000/svg" xmlns:xlink="http://www.w3.org/1999/xlink" x="0px" y="0px"
	 viewBox="0 0 1024 1024" style="enable-background:new 0 0 1024 1024;" xml:space="preserve">
<g id="图层_1_1_">
</g>
<g>
	<polygon points="614.8,659.7 614.8,574.7 513.3,574.7 513.3,400.7 428.4,400.7 428.4,574.7 428.4,659.7 513.3,659.7 	"/>
	<path d="M683.8,315.2c24.9,0,41.5-16.6,44.3-38.7V138.1c0-22.1-16.6-38.7-41.5-38.7c-22.1,0-41.5,16.6-41.5,38.7v138.3
		C645.1,295.8,661.7,312.4,683.8,315.2z"/>
	<path d="M343.5,315.2c24.9,0,41.5-16.6,44.3-38.7V138.1c-2.8-22.1-19.4-41.5-41.5-41.5c-24.9,0-41.5,16.6-41.5,38.7v138.3
		C304.8,295.8,321.4,312.4,343.5,315.2z"/>
	<rect x="432" y="165.8" width="163.2" height="83"/>
	<path d="M822.1,165.8h-49.8v83h47c16.6,0,27.7,13.8,27.7,27.7v174.3l2.8,362.4c0,16.6-13.8,30.4-30.4,30.4H210.7
		c-16.6,0-30.4-13.8-30.4-30.4l2.8-362.4V276.4c0-13.8,11.1-27.7,27.7-27.7h47v-83H208c-58.1,0-107.9,47-107.9,107.9v545
		c0,58.1,49.8,107.9,107.9,107.9h614.2c58.1,0,107.9-49.8,107.9-107.9v-545C930,212.8,880.2,165.8,822.1,165.8z"/>
</g>
</svg>
