<?xml version="1.0" encoding="utf-8"?>
<!-- Generator: Adobe Illustrator 21.1.0, SVG Export Plug-In . SVG Version: 6.00 Build 0)  -->
<svg version="1.1" id="图层_1" xmlns="http://www.w3.org/2000/svg" xmlns:xlink="http://www.w3.org/1999/xlink" x="0px" y="0px"
	 viewBox="0 0 1024 1024" style="enable-background:new 0 0 1024 1024;" xml:space="preserve">
<g id="图层_1_1_">
</g>
<g>
	<path d="M513,65.2c-247.4,0-448,200.6-448,448s200.6,448,448,448s448-200.6,448-448S760.4,65.2,513,65.2z M513,877.2
		c-201,0-364-163-364-364s163-364,364-364s364,163,364,364S714,877.2,513,877.2z"/>
	<path d="M513,237.2c-152.4,0-276,123.6-276,276s123.6,276,276,276s276-123.6,276-276S665.4,237.2,513,237.2z M513,705.7
		c-106.3,0-192.5-86.2-192.5-192.5S406.7,320.7,513,320.7s192.5,86.2,192.5,192.5S619.3,705.7,513,705.7z"/>
	<path d="M530.5,393.6c-8.8-13.3-31-13.3-37.6,0l-104,181.8c-4.4,6.7-4.4,15.5,0,22.2c4.4,6.7,11.1,11.1,19.9,11.1h208
		c8.8,0,15.5-4.4,19.9-11.1c4.4-6.7,0-13.4-2.2-22.2L530.5,393.6z M475.7,546l34.2-62.8L547,546H475.7z"/>
</g>
</svg>
