<?xml version="1.0" encoding="utf-8"?>
<!-- Generator: Adobe Illustrator 21.1.0, SVG Export Plug-In . SVG Version: 6.00 Build 0)  -->
<svg version="1.1" id="图层_1" xmlns="http://www.w3.org/2000/svg" xmlns:xlink="http://www.w3.org/1999/xlink" x="0px" y="0px"
	 viewBox="0 0 1024 1024" style="enable-background:new 0 0 1024 1024;" xml:space="preserve">
<g id="图层_1_1_">
</g>
<g>
	<polygon points="182,183.1 386,183.1 386,99.2 182,99.2 98,99.2 98,183.1 98,386.9 182,386.9 	"/>
	<polygon points="182,640.3 98,640.3 98,844.1 98,928 182,928 386,928 386,844.1 182,844.1 	"/>
	<polygon points="842.4,99.2 638.4,99.2 638.4,183.1 842.4,183.1 842.4,386.9 926.4,386.9 926.4,183.1 926.4,99.2 	"/>
	<polygon points="842.4,844.1 638.4,844.1 638.4,928 842.4,928 926.4,928 926.4,844.1 926.4,640.3 842.4,640.3 	"/>
	<path d="M508.9,471.4c-60.1,0-115,21.9-157.2,58.2l59.7,59.6c26.8-21.2,60.6-33.9,97.5-33.9c36.5,0,70,12.4,96.7,33.3l59.7-59.6
		C623.2,493.1,568.6,471.4,508.9,471.4z"/>
	<path d="M313.1,490.7c50-50,119-80.9,195.4-80.9s145.4,30.9,195.4,80.9l59.4-59.3C698.1,366.2,608,325.9,508.5,325.9
		s-189.6,40.3-254.8,105.5L313.1,490.7z"/>
	<circle cx="508.5" cy="657.4" r="42"/>
</g>
</svg>
