<?xml version="1.0" encoding="utf-8"?>
<!-- Generator: Adobe Illustrator 21.1.0, SVG Export Plug-In . SVG Version: 6.00 Build 0)  -->
<svg version="1.1" id="图层_1" xmlns="http://www.w3.org/2000/svg" xmlns:xlink="http://www.w3.org/1999/xlink" x="0px" y="0px"
	 viewBox="0 0 1024 1024" style="enable-background:new 0 0 1024 1024;" xml:space="preserve">
<g id="图层_1_1_">
</g>
<g>
	<path d="M548.2,126.4c-13.7-6.4-29.8-4.3-41.5,5.3l-224,186.5l-178.6-0.7H104c-10.3,0-20.2,4-27.5,11.3C69.2,336,65,346,65,356.3
		l-0.8,311.6c0,10.3,4,20.3,11.4,27.6c7.3,7.4,17.2,11.5,27.6,11.5h180.7l222.9,185.8c7.1,5.9,16,9,24.9,9c5.6,0,11.3-1.2,16.5-3.7
		c13.7-6.4,22.4-20.1,22.4-35.2l0-701.3C570.6,146.6,561.9,132.8,548.2,126.4z M486.4,771.6L322.6,634.3c-6.8-5.6-15.2-8.7-24-8.7
		H148.4L149,399l148.2,0.6h0.2c8.8,0,17.3-3.1,24-8.7l165-138.2V771.6z"/>
	<path d="M704.3,321.1c-21-9.1-46-0.8-56.2,18.3c-10.2,19.2-1.4,42.4,19.5,52c2.7,1.3,66.5,31.6,66.5,117.9
		c0,92.3-59.7,122.8-61.6,123.8c-21.1,9.6-29.6,33-19,52.3c7.5,13.7,22.5,21.5,38.2,21.5c6.4,0,12.9-1.3,19-4.1
		c4.4-2.1,108.7-51.4,108.7-193.6C819.3,372.2,709,323.1,704.3,321.1z"/>
	<path d="M824.6,206.7c-19.2-11.5-44.7-6.3-57.2,11.6s-7,42,12.1,53.8c4.5,2.8,111.2,70.8,111.2,240
		c0,169.6-102.4,237.6-106.5,240.3c-19.2,12-24.3,36.1-11.5,54c8,11.3,21.3,17.3,34.7,17.3c7.9,0,16-2.1,23.1-6.5
		c5.8-3.6,143.5-91.9,143.5-305.1C974,298.6,830.7,210.4,824.6,206.7z"/>
</g>
</svg>
