<?xml version="1.0" encoding="utf-8"?>
<!-- Generator: Adobe Illustrator 21.1.0, SVG Export Plug-In . SVG Version: 6.00 Build 0)  -->
<svg version="1.1" id="图层_1" xmlns="http://www.w3.org/2000/svg" xmlns:xlink="http://www.w3.org/1999/xlink" x="0px" y="0px"
	 viewBox="0 0 1024 1024" style="enable-background:new 0 0 1024 1024;" xml:space="preserve">
<g id="图层_1_1_">
</g>
<g>
	<path d="M903,455L568.8,120.8c-31.6-31.6-83.2-31.6-114.8,0L119.8,455c-31.6,31.6-31.6,83.2,0,114.8L454,904
		c31.6,31.6,83.2,31.6,114.8,0L903,569.8C934.6,538.2,934.6,486.6,903,455z M813.3,540.7L539.7,814.3c-15.6,15.6-41,15.6-56.6,0
		L209.5,540.7c-15.6-15.6-15.6-41,0-56.6l273.6-273.6c15.6-15.6,41-15.6,56.6,0l273.6,273.6C828.9,499.7,828.9,525.1,813.3,540.7z"
		/>
	<path d="M666,441l-122.6-89.2c-19.5-13.9-47.4-13.9-66.9,0L356.8,441c-19.5,13.9-27.9,39-19.5,61.3l47.4,142.1
		c8.4,22.3,27.9,39,52.9,39h147.7c25.1,0,44.6-16.7,52.9-39l47.4-142.1C693.9,480,685.5,454.9,666,441z M596.6,507.7l-25.5,78.5
		c-2.1,8.5-10.6,14.8-21.2,14.8h-82.7c-8.5,0-17-6.4-21.2-14.8l-25.5-78.5c-2.1-8.5,0-19.1,8.5-23.3l65.8-48.8
		c8.5-6.4,17-6.4,25.5,0l65.8,48.8C596.6,488.6,598.8,499.2,596.6,507.7z"/>
</g>
</svg>
