<?xml version="1.0" encoding="utf-8"?>
<!-- Generator: Adobe Illustrator 21.1.0, SVG Export Plug-In . SVG Version: 6.00 Build 0)  -->
<svg version="1.1" id="图层_1" xmlns="http://www.w3.org/2000/svg" xmlns:xlink="http://www.w3.org/1999/xlink" x="0px" y="0px"
	 viewBox="0 0 1024 1024" style="enable-background:new 0 0 1024 1024;" xml:space="preserve">
<g id="图层_1_1_">
</g>
<g>
	<path d="M682,317c24.9,0,41.5-16.6,44.3-38.7V140c0-22.1-16.6-38.7-41.5-38.7c-22.1,0-41.5,16.6-41.5,38.7v138.3
		C643.3,297.7,659.9,314.3,682,317z"/>
	<path d="M341.7,317c24.9,0,41.5-16.6,44.3-38.7V140c-2.8-22.1-19.4-41.5-41.5-41.5c-24.9,0-41.5,16.6-41.5,38.7v138.3
		C303,297.7,319.6,314.3,341.7,317z"/>
	<rect x="430.2" y="167.6" width="163.2" height="83"/>
	<path d="M820.3,167.6h-49.8v83h47c16.6,0,27.7,13.8,27.7,27.7v174.3L848,815c0,16.6-13.8,30.4-30.4,30.4H208.9
		c-16.6,0-30.4-13.8-30.4-30.4l2.8-362.4V278.3c0-13.8,11.1-27.7,27.7-27.7h47v-83h-49.8c-58.1,0-107.9,47-107.9,107.9v545
		c0,58.1,49.8,107.9,107.9,107.9h614.2c58.1,0,107.9-49.8,107.9-107.9v-545C928.2,214.7,878.4,167.6,820.3,167.6z"/>
	<path d="M375,724.4c40.3,0,73-32.7,73-73c0-16.1-5.2-31-14.1-43l14.5-42.8l55.5,55.5c-0.3,2.8-0.5,5.6-0.5,8.5
		c0,40.3,32.7,73,73,73s73-32.7,73-73c0-7.6-1.2-15-3.3-21.9l25.9-76.1c30.3-8.9,52.5-36.9,52.5-70.1c0-40.3-32.7-73-73-73
		s-73,32.7-73,73c0,16.1,5.2,30.9,14,43l-17.7,52.1c-5,0.1-9.9,0.7-14.7,1.8l-72.7-72.7c4.2-9.2,6.5-19.4,6.5-30.2
		c0-40.3-32.7-73-73-73s-73,32.7-73,73c0,23.9,11.5,45.1,29.3,58.5l-22.9,67.3c-30.3,8.9-52.4,36.9-52.4,70
		C302,691.7,334.7,724.4,375,724.4z"/>
</g>
</svg>
