<?xml version="1.0" encoding="utf-8"?>
<!-- Generator: Adobe Illustrator 21.1.0, SVG Export Plug-In . SVG Version: 6.00 Build 0)  -->
<svg version="1.1" id="图层_1" xmlns="http://www.w3.org/2000/svg" xmlns:xlink="http://www.w3.org/1999/xlink" x="0px" y="0px"
	 viewBox="0 0 1024 1024" style="enable-background:new 0 0 1024 1024;" xml:space="preserve">
<g id="图层_1_1_">
</g>
<g>
	<path d="M511.3,543.7c132.6,0,240-107.5,240-240s-107.4-240-240-240c-132.5,0-240,107.4-240,240
		C271.3,436.2,378.7,543.7,511.3,543.7z M511.3,147.7c86.2,0,156,69.8,156,156s-69.8,156-156,156s-156-69.9-156-156
		C355.3,217.5,425.2,147.7,511.3,147.7z"/>
	<path d="M911,540.9c0-4.9,0-4.9-4.9-9.8c0-9.8-9.8-29.4-19.6-39.2c-14.7-9.8-39.2-19.6-49-14.7l-4.9,4.9l-24.5,29.4l73.5,58.8
		L911,540.9z"/>
	<polygon points="710.1,776.2 866.9,594.8 793.4,536 641.5,712.5 	"/>
	<polygon points="607.2,815.4 695.4,790.9 626.8,727.2 	"/>
	<path d="M846.6,673.7l-57.7,66.7c15.6,24.5,24.4,52.2,24.4,81.5v11.7c0,39.5-102.3,41-228.4,41H437.5c-126.2,0-228.5,0-228.5-41
		v-11.7c0-100.1,102.3-181.3,228.4-181.3h147.4c21.2,0,41.7,2.3,61.2,6.6l63.1-73.3c-31.3-11.2-64.9-17.3-99.9-17.3H413.4
		c-167.6,0-303.5,139.5-303.5,311.4v20.1c0,70.4,135.9,70.4,303.6,70.4h195.9c167.6,0,303.5-2.6,303.5-70.4V868
		C912.9,794.5,888.1,727,846.6,673.7z"/>
</g>
</svg>
