<?xml version="1.0" encoding="utf-8"?>
<!-- Generator: Adobe Illustrator 21.1.0, SVG Export Plug-In . SVG Version: 6.00 Build 0)  -->
<svg version="1.1" id="图层_1" xmlns="http://www.w3.org/2000/svg" xmlns:xlink="http://www.w3.org/1999/xlink" x="0px" y="0px"
	 viewBox="0 0 1024 1024" style="enable-background:new 0 0 1024 1024;" xml:space="preserve">
<g id="图层_1_1_">
</g>
<g>
	<path d="M511.7,63.8c-247.4,0-448,200.6-448,448s200.6,448,448,448s448-200.6,448-448S759.1,63.8,511.7,63.8z M511.7,875.8
		c-201,0-364-163-364-364s163-364,364-364s364,163,364,364S712.8,875.8,511.7,875.8z"/>
	<path d="M354.9,528.6l59.7,59.7c26.8-21.2,60.6-33.9,97.5-33.9c36.5,0,70,12.4,96.7,33.3l59.7-59.7
		c-42.1-35.9-96.7-57.6-156.4-57.6C452,470.3,397.1,492.3,354.9,528.6z"/>
	<path d="M256.9,430.2l59.4,59.4c50-50.1,119-81,195.4-81s145.4,31,195.4,81l59.4-59.4C701.3,365,611.2,324.6,511.7,324.6
		S322.1,365,256.9,430.2z"/>
	<circle cx="511.7" cy="656.5" r="42"/>
</g>
</svg>
