<?xml version="1.0" encoding="utf-8"?>
<!-- Generator: Adobe Illustrator 21.0.2, SVG Export Plug-In . SVG Version: 6.00 Build 0)  -->
<svg version="1.1" id="图层_1" xmlns="http://www.w3.org/2000/svg" xmlns:xlink="http://www.w3.org/1999/xlink" x="0px" y="0px"
	 viewBox="0 0 1024 1024" style="enable-background:new 0 0 1024 1024;" xml:space="preserve">
<g>
	<path d="M959.3,307.3c-2-48-41.5-86.2-89.9-86.2c-34.7,0-64.8,19.7-79.8,48.4c-18.4-1.6-36.9-2.4-55.7-2.4
		c-74.3,0-145.7,12.5-212.3,35.5c-18.2-25.1-47.7-41.4-81.1-41.4c-55.2,0-100,44.8-100,100c0,11.9,2.1,23.4,5.9,34
		C266,454.9,199.8,532.9,154,623c-0.3,0-0.7,0-1,0c-49.7,0-90,40.3-90,90c0,28.8,13.5,54.4,34.5,70.8c13.3,10.4,29.5,17.2,47.2,18.8
		c2.7,0.2,5.5,0.4,8.3,0.4c49.7,0,90-40.3,90-90c0-31.4-16.1-59-40.4-75.1c41.8-79.3,100.8-148.1,172.1-201.4
		c17.6,15.4,40.6,24.7,65.8,24.7c55.2,0,100-44.8,100-100c0-4-0.2-8-0.7-11.9c60.9-20.8,126.1-32.1,194-32.1
		c15.4,0,30.7,0.6,45.9,1.7c4,46.1,42.6,82.2,89.7,82.2c33.3,0,62.3-18,77.9-44.9c7.7-13.3,12.1-28.7,12.1-45.1
		C959.4,309.8,959.3,308.5,959.3,307.3z M156.6,752.8c-1.2,0.1-2.4,0.2-3.6,0.2c-19.3,0-35.3-13.6-39.1-31.8
		c-0.6-2.7-0.9-5.4-0.9-8.2c0-12.5,5.7-23.6,14.6-30.9c6.9-5.7,15.7-9.1,25.4-9.1c10.8,0,20.5,4.3,27.7,11.2
		c7.6,7.3,12.3,17.5,12.3,28.8C193,733.8,177,751,156.6,752.8z M897.3,339.6c-7.2,7-17.1,11.4-27.9,11.4
		c-17.1,0-31.8-10.8-37.5-25.9c-1.6-4.4-2.5-9.1-2.5-14.1c0-14.3,7.5-26.8,18.8-33.9c6.2-3.9,13.4-6.1,21.2-6.1
		c14.1,0,26.5,7.3,33.6,18.3c4,6.3,6.4,13.7,6.4,21.7C909.4,322.2,904.7,332.4,897.3,339.6z"/>
	<path d="M709.5,646h-230c-19.3,0-35,15.7-35,35s15.7,35,35,35h230c19.3,0,35-15.7,35-35S728.8,646,709.5,646z"/>
</g>
</svg>
