<?xml version="1.0" encoding="utf-8"?>
<!-- Generator: Adobe Illustrator 21.1.0, SVG Export Plug-In . SVG Version: 6.00 Build 0)  -->
<svg version="1.1" id="图层_1" xmlns="http://www.w3.org/2000/svg" xmlns:xlink="http://www.w3.org/1999/xlink" x="0px" y="0px"
	 viewBox="0 0 1024 1024" style="enable-background:new 0 0 1024 1024;" xml:space="preserve">
<g id="图层_1_1_">
</g>
<g>
	<path d="M904.3,456L570.1,121.9c-31.6-31.6-83.2-31.6-114.8,0L121.1,456.1c-31.6,31.6-31.6,83.2,0,114.8l334.2,334.2
		c31.6,31.6,83.2,31.6,114.8,0l334.2-334.3C935.9,539.2,935.9,487.6,904.3,456z M814.6,541.8L541,815.5c-15.6,15.6-41,15.6-56.6,0
		L210.8,541.8c-15.6-15.6-15.6-41,0-56.6l273.6-273.6c15.6-15.6,41-15.6,56.6,0l273.6,273.6C830.2,500.8,830.2,526.2,814.6,541.8z"
		/>
	<path d="M512,327.7c-102.2,0-185,82.8-185,185s82.8,185,185,185s185-82.8,185-185S614.2,327.7,512,327.7z M512,613.7
		c-55.8,0-101-45.2-101-101s45.2-101,101-101s101,45.2,101,101S567.8,613.7,512,613.7z"/>
</g>
</svg>
