<?xml version="1.0" encoding="utf-8"?>
<!-- Generator: Adobe Illustrator 21.1.0, SVG Export Plug-In . SVG Version: 6.00 Build 0)  -->
<svg version="1.1" id="图层_1" xmlns="http://www.w3.org/2000/svg" xmlns:xlink="http://www.w3.org/1999/xlink" x="0px" y="0px"
	 viewBox="0 0 1024 1024" style="enable-background:new 0 0 1024 1024;" xml:space="preserve">
<g id="图层_1_1_">
</g>
<path d="M866,628.3h-84.1v-59.7v-36v-48h-230V398h110.5c33,0,60-27,60-60V158c0-33-27-60-60-60h-305c-33,0-60,27-60,60v180
	c0,33,27,60,60,60h110.5v86.6H243v48v36v59.7h-85c-33,0-60,27-60,60v180c0,33,27,60,60,60h220c33,0,60-27,60-60v-180
	c0-33-27-60-60-60h-51v-59.7h370.9v59.7H646c-33,0-60,27-60,60v180c0,33,27,60,60,60h220c33,0,60-27,60-60v-180
	C926,655.3,899,628.3,866,628.3z M381.4,294v-92c0-11,9-20,20-20h217c11,0,20,9,20,20v92c0,11-9,20-20,20h-217
	C390.4,314,381.4,305,381.4,294z M354,732.3v92c0,11-9,20-20,20H202c-11,0-20-9-20-20v-92c0-11,9-20,20-20h132
	C345,712.3,354,721.3,354,732.3z M842,824.3c0,11-9,20-20,20H690c-11,0-20-9-20-20v-92c0-11,9-20,20-20h132c11,0,20,9,20,20V824.3z"
	/>
</svg>
