<?xml version="1.0" encoding="utf-8"?>
<!-- Generator: Adobe Illustrator 21.1.0, SVG Export Plug-In . SVG Version: 6.00 Build 0)  -->
<svg version="1.1" id="图层_1" xmlns="http://www.w3.org/2000/svg" xmlns:xlink="http://www.w3.org/1999/xlink" x="0px" y="0px"
	 viewBox="0 0 1024 1024" style="enable-background:new 0 0 1024 1024;" xml:space="preserve">
<g id="图层_1_1_">
</g>
<g>
	<path d="M815.3,328.9l61.2-61.3c-18.5-22-38.8-42.7-60.8-60.9L754.5,268c-66.9-53.5-151-85.5-242.4-85.5
		c-214.4,0-388.2,174-388.2,388.6s173.4,388.6,388.2,388.6s388.2-174,388.2-388.6C900.2,479.6,868.3,395.4,815.3,328.9z
		 M512.1,874.7c-167.7,0-303.3-135.8-303.3-303.6s135.6-303.6,303.3-303.6s303.3,135.8,303.3,303.6S679.7,874.7,512.1,874.7z"/>
	<rect x="382.7" y="63.9" width="258.7" height="85"/>
	<polygon points="553.4,355.3 468.5,355.3 468.5,529.3 367.1,529.3 367.1,614.3 468.5,614.3 553.4,614.3 553.5,614.3 553.5,529.3 
		553.4,529.3 	"/>
</g>
</svg>
