<?xml version="1.0" encoding="utf-8"?>
<!-- Generator: Adobe Illustrator 21.1.0, SVG Export Plug-In . SVG Version: 6.00 Build 0)  -->
<svg version="1.1" id="图层_1" xmlns="http://www.w3.org/2000/svg" xmlns:xlink="http://www.w3.org/1999/xlink" x="0px" y="0px"
	 viewBox="0 0 1024 1024" style="enable-background:new 0 0 1024 1024;" xml:space="preserve">
<g id="图层_1_1_">
</g>
<g>
	<path d="M681.5,316.2c24.9,0,41.5-16.6,44.3-38.7V139.2c0-22.1-16.6-38.7-41.5-38.7c-22.1,0-41.5,16.6-41.5,38.7v138.3
		C642.8,296.9,659.3,313.5,681.5,316.2z"/>
	<path d="M341.2,316.2c24.9,0,41.5-16.6,44.3-38.7V139.2c-2.8-22.1-19.4-41.5-41.5-41.5c-24.9,0-41.5,16.6-41.5,38.7v138.3
		C302.5,296.9,319.1,313.5,341.2,316.2z"/>
	<rect x="429.7" y="166.8" width="163.2" height="83"/>
	<path d="M819.8,166.8H770v83h47c16.6,0,27.7,13.8,27.7,27.7v174.3l2.8,362.4c0,16.6-13.8,30.4-30.4,30.4H208.4
		c-16.6,0-30.4-13.8-30.4-30.4l2.8-362.4V277.5c0-13.8,11.1-27.7,27.7-27.7h47v-83h-49.8c-58.1,0-107.9,47-107.9,107.9v545
		c0,58.1,49.8,107.9,107.9,107.9h614.2c58.1,0,107.9-49.8,107.9-107.9v-545C927.7,213.9,877.9,166.8,819.8,166.8z"/>
	<path d="M381.3,662.4c0,14.6,16,23.9,28.8,16.4l224.5-129.9c12.8-7.4,12.8-25.9,0.1-33.1L409.8,386.3c-12.5-7.1-28.5,2.1-28.5,16.7
		V662.4z"/>
</g>
</svg>
