<?xml version="1.0" encoding="utf-8"?>
<!-- Generator: Adobe Illustrator 21.1.0, SVG Export Plug-In . SVG Version: 6.00 Build 0)  -->
<svg version="1.1" id="图层_1" xmlns="http://www.w3.org/2000/svg" xmlns:xlink="http://www.w3.org/1999/xlink" x="0px" y="0px"
	 viewBox="0 0 1024 1024" style="enable-background:new 0 0 1024 1024;" xml:space="preserve">
<g id="图层_1_1_">
</g>
<g>
	<rect x="252" y="683.1" transform="matrix(0.7071 -0.7071 0.7071 0.7071 -424.2517 425.9203)" width="100" height="84"/>
	<rect x="386" y="549" transform="matrix(0.7071 -0.7071 0.7071 0.7071 -290.2244 481.3808)" width="100" height="84"/>
	<rect x="521.2" y="413.9" transform="matrix(0.7071 -0.7071 0.7071 0.7071 -155.0555 537.4082)" width="100" height="84"/>
	<path d="M111.7,855.9c-16.4,16.4-16.4,43,0,59.4s43,16.4,59.4,0l59.7-59.7l-59.4-59.4L111.7,855.9z"/>
	<path d="M883.3,433.2h-48.6v-251h48.6c23.2,0,42-18.8,42-42c0-23.2-18.8-42-42-42h-90.6c-23.2,0-42,18.8-42,42v123.7
		c-16.3-10.5-38.2-8.7-52.5,5.6l-59.7,59.7l59.4,59.4l52.8-52.8v139.4c0,23.2,18.8,42,42,42h90.6c23.2,0,42-18.8,42-42
		S906.5,433.2,883.3,433.2z"/>
</g>
</svg>
