<?xml version="1.0" encoding="utf-8"?>
<!-- Generator: Adobe Illustrator 21.1.0, SVG Export Plug-In . SVG Version: 6.00 Build 0)  -->
<svg version="1.1" id="图层_1" xmlns="http://www.w3.org/2000/svg" xmlns:xlink="http://www.w3.org/1999/xlink" x="0px" y="0px"
	 viewBox="0 0 1024 1024" style="enable-background:new 0 0 1024 1024;" xml:space="preserve">
<g id="图层_1_1_">
</g>
<path d="M928,574.1L928,574.1V452.5v-0.1l-107.1-21.7c-7.3-27.2-18-52.9-31.8-76.7l60.4-91.1l-0.1-0.1l-85.9-85.9l-0.1-0.1
	l-91.1,60.4c-23.8-13.8-49.5-24.5-76.7-31.8L573.9,98.2h-0.1H452.3h-0.1l-21.7,107.1c-27.2,7.3-52.9,18-76.7,31.8l-91.1-60.4
	l-0.1,0.1l-85.9,85.9l-0.1,0.1l60.4,91.1c-13.8,23.8-24.5,49.5-31.8,76.7L98,452.4v0.1v121.4v0.1l107.1,21.7
	c7.3,27.2,18,52.9,31.8,76.7l-60.4,91.1l0.1,0.1l85.9,85.9l0.1,0.1l91.1-60.4c23.8,13.8,49.5,24.5,76.7,31.8l21.7,107.1h0.1h121.4
	h0.1L595.4,821c27.2-7.3,52.9-18,76.7-31.8l91.1,60.4l0.1-0.1l85.9-85.9l0.1-0.1l-60.4-91.1c13.8-23.8,24.5-49.5,31.8-76.7
	L928,574.1z M513,747.2c-129.2,0-234-104.8-234-234s104.8-234,234-234s234,104.8,234,234C747,642.5,642.2,747.2,513,747.2z"/>
</svg>
