<?xml version="1.0" encoding="utf-8"?>
<!-- Generator: Adobe Illustrator 21.1.0, SVG Export Plug-In . SVG Version: 6.00 Build 0)  -->
<svg version="1.1" id="图层_1" xmlns="http://www.w3.org/2000/svg" xmlns:xlink="http://www.w3.org/1999/xlink" x="0px" y="0px"
	 viewBox="0 0 1024 1024" style="enable-background:new 0 0 1024 1024;" xml:space="preserve">
<g id="图层_1_1_">
</g>
<path d="M880.2,224.8h-736c-44,0-80,36-80,80v416c0,44,36,80,80,80h736c44,0,80-36,80-80v-416C960.2,260.8,924.2,224.8,880.2,224.8z
	 M148.2,676.8v-328c0-22,18-40,40-40h119.7v408H188.2C166.2,716.8,148.2,698.8,148.2,676.8z M876.2,676.8c0,22-18,40-40,40H391.9
	v-408h444.3c22,0,40,18,40,40V676.8z"/>
</svg>
