<?xml version="1.0" encoding="utf-8"?>
<!-- Generator: Adobe Illustrator 21.1.0, SVG Export Plug-In . SVG Version: 6.00 Build 0)  -->
<svg version="1.1" id="图层_1" xmlns="http://www.w3.org/2000/svg" xmlns:xlink="http://www.w3.org/1999/xlink" x="0px" y="0px"
	 viewBox="0 0 1024 1024" style="enable-background:new 0 0 1024 1024;" xml:space="preserve">
<g id="图层_1_1_">
</g>
<g>
	<path d="M924.7,317.6c-22.9-47.4-55.4-90-96.9-126.4c-84.5-74.2-196.4-115-315.3-115c-119,0-230.9,40.9-315.3,115
		c-41.5,36.4-74,78.9-96.9,126.4c-23.8,49.5-35.8,102-35.8,156.1c0,63.5,17.3,126.6,50,182.7c28.6,49,69,92.7,117.5,127.4v131.6
		c0,11.4,6.1,21.8,15.9,27.5c4.9,2.8,10.4,4.2,15.9,4.2c5.4,0,11-1.5,15.9-4.2l139.2-80.4c30.7,5.8,62.3,8.7,93.7,8.7
		c119,0,230.9-40.9,315.3-115c41.5-36.4,74-78.9,96.9-126.4c23.8-49.5,35.8-102,35.8-156.1C960.7,419.6,948.5,367.1,924.7,317.6z
		 M512.5,788.4c-29.5,0-59-3.1-87.6-9.2c-7.3-1.5-14.9-0.4-21.3,3.4L307.1,838v-87.8c0-10.1-5.1-19.4-13.5-25
		c-92.2-60.1-145.1-151.5-145.1-250.9c0-173.2,163.2-314,364-314c200.6,0,364,140.8,364,314S713.2,788.4,512.5,788.4z"/>
	<circle cx="342.1" cy="483.6" r="50"/>
	<circle cx="512" cy="483.6" r="50"/>
	<circle cx="682.1" cy="483.6" r="50"/>
</g>
</svg>
