<?xml version="1.0" encoding="utf-8"?>
<!-- Generator: Adobe Illustrator 21.1.0, SVG Export Plug-In . SVG Version: 6.00 Build 0)  -->
<svg version="1.1" id="图层_1" xmlns="http://www.w3.org/2000/svg" xmlns:xlink="http://www.w3.org/1999/xlink" x="0px" y="0px"
	 viewBox="0 0 1024 1024" style="enable-background:new 0 0 1024 1024;" xml:space="preserve">
<g id="图层_1_1_">
</g>
<g>
	<path d="M512.3,544.9c132.6,0,240-107.5,240-240c0-132.6-107.5-240-240-240s-240,107.4-240,240
		C272.3,437.4,379.7,544.9,512.3,544.9z M512.3,148.9c86.2,0,156,69.8,156,156c0,86.1-69.9,156-156,156c-86.2,0-156-69.9-156-156
		C356.3,218.7,426.2,148.9,512.3,148.9z"/>
	<path d="M610.2,557.7H414.3c-167.6,0-303.5,139.5-303.5,311.4v20.1c0,70.4,135.9,70.4,303.6,70.4h195.9
		c167.6,0,303.5-2.6,303.5-70.4v-20.1C913.8,697.2,777.8,557.7,610.2,557.7z M585.8,875.7H438.4c-126.2,0-228.5,0-228.5-41V823
		c0-100.1,102.3-181.3,228.4-181.3h147.4c126.1,0,228.4,81.2,228.4,181.3l0.1,11.7C814.2,874.2,711.9,875.7,585.8,875.7z"/>
</g>
</svg>
