<?xml version="1.0" encoding="utf-8"?>
<!-- Generator: Adobe Illustrator 21.1.0, SVG Export Plug-In . SVG Version: 6.00 Build 0)  -->
<svg version="1.1" id="图层_1" xmlns="http://www.w3.org/2000/svg" xmlns:xlink="http://www.w3.org/1999/xlink" x="0px" y="0px"
	 viewBox="0 0 1024 1024" style="enable-background:new 0 0 1024 1024;" xml:space="preserve">
<g id="图层_1_1_">
</g>
<g>
	<path d="M681,315.9c24.9,0,41.5-16.6,44.3-38.7V138.8c0-22.1-16.6-38.7-41.5-38.7c-22.1,0-41.5,16.6-41.5,38.7v138.3
		C642.2,296.5,658.8,313.1,681,315.9z"/>
	<path d="M340.7,315.9c24.9,0,41.5-16.6,44.3-38.7V138.8c-2.8-22.1-19.4-41.5-41.5-41.5c-24.9,0-41.5,16.6-41.5,38.7v138.3
		C301.9,296.5,318.5,313.1,340.7,315.9z"/>
	<rect x="429.2" y="166.5" width="163.2" height="83"/>
	<path d="M819.3,166.5h-49.8v83h47c16.6,0,27.7,13.8,27.7,27.7v174.3l2.8,362.4c0,16.6-13.8,30.4-30.4,30.4H207.9
		c-16.6,0-30.4-13.8-30.4-30.4l2.8-362.4V277.2c0-13.8,11.1-27.7,27.7-27.7h47v-83h-49.8c-58.1,0-107.9,47-107.9,107.9v545
		c0,58.1,49.8,107.9,107.9,107.9h614.2c58.1,0,107.9-49.8,107.9-107.9v-545C927.2,213.5,877.4,166.5,819.3,166.5z"/>
	<path d="M398.7,658.1c16.4,16.4,46.8,12.6,67.8-8.4l46.5-46.5l46.5,46.5c21,21,51.4,24.8,67.8,8.4c16.4-16.4,12.6-46.8-8.4-67.8
		l-46.5-46.5l46.4-46.4c21-21,24.8-51.4,8.4-67.8c-16.4-16.4-46.8-12.6-67.8,8.4L513,484.4L466.5,438c-21-21-51.4-24.8-67.8-8.4
		c-16.4,16.4-12.6,46.8,8.4,67.8l46.5,46.4l-46.5,46.5C386.1,611.3,382.3,641.7,398.7,658.1z"/>
</g>
</svg>
