<?xml version="1.0" encoding="utf-8"?>
<!-- Generator: Adobe Illustrator 21.1.0, SVG Export Plug-In . SVG Version: 6.00 Build 0)  -->
<svg version="1.1" id="图层_1" xmlns="http://www.w3.org/2000/svg" xmlns:xlink="http://www.w3.org/1999/xlink" x="0px" y="0px"
	 viewBox="0 0 1024 1024" style="enable-background:new 0 0 1024 1024;" xml:space="preserve">
<g id="图层_1_1_">
</g>
<path d="M513,65.2c-247.4,0-448,200.6-448,448s200.6,448,448,448s448-200.6,448-448S760.4,65.2,513,65.2z M149,513.2
	c0-201,163-364,364-364c86.5,0,165.9,30.2,228.4,80.6L229.6,741.6C179.2,679.1,149,599.7,149,513.2z M513,877.2
	c-84.3,0-161.8-28.6-223.5-76.7l510.8-510.8c48.1,61.7,76.7,139.3,76.7,223.5C877,714.2,714,877.2,513,877.2z"/>
</svg>
