<?xml version="1.0" encoding="utf-8"?>
<!-- Generator: Adobe Illustrator 21.1.0, SVG Export Plug-In . SVG Version: 6.00 Build 0)  -->
<svg version="1.1" id="图层_1" xmlns="http://www.w3.org/2000/svg" xmlns:xlink="http://www.w3.org/1999/xlink" x="0px" y="0px"
	 viewBox="0 0 1024 1024" style="enable-background:new 0 0 1024 1024;" xml:space="preserve">
<g id="图层_1_1_">
</g>
<g>
	<path d="M513,65.2c-247.4,0-448,200.6-448,448s200.6,448,448,448s448-200.6,448-448S760.4,65.2,513,65.2z M513,877.2
		c-201,0-364-163-364-364s163-364,364-364s364,163,364,364S714,877.2,513,877.2z"/>
	<path d="M654.5,370.9c-16.3-16.3-43.1-16.3-59.4,0l-82,82l-82-82c-16.4-16.4-43.1-16.4-59.4-0.1s-16.3,43.1,0,59.4l82,82.1l-82,82
		c-16.3,16.3-16.3,43.1,0,59.4s43.1,16.3,59.4,0l82-82l82,82c16.3,16.3,43.1,16.3,59.4,0c16.3-16.3,16.3-43.1,0-59.4l-82-82l82-82.1
		C670.8,413.9,670.8,387.2,654.5,370.9z"/>
</g>
</svg>
