<?xml version="1.0" encoding="utf-8"?>
<!-- Generator: Adobe Illustrator 21.1.0, SVG Export Plug-In . SVG Version: 6.00 Build 0)  -->
<svg version="1.1" id="图层_1" xmlns="http://www.w3.org/2000/svg" xmlns:xlink="http://www.w3.org/1999/xlink" x="0px" y="0px"
	 viewBox="0 0 1024 1024" style="enable-background:new 0 0 1024 1024;" xml:space="preserve">
<g id="图层_1_1_">
</g>
<g>
	<path d="M827.5,98.2h-630c-55,0-100,45-100,100v630c0,55,45,100,100,100h630c55,0,100-45,100-100v-630
		C927.5,143.2,882.5,98.2,827.5,98.2z M843.5,784.2c0,33-27,60-60,60h-542c-33,0-60-27-60-60V376.1h662V784.2z M843.5,292.1h-662
		v-49.9c0-33,27-60,60-60h542c33,0,60,27,60,60V292.1z"/>
	<path d="M340.3,729.3c7.6,11.6,19,17.4,34.1,17.4c3.8,0,11.4,0,15.2-2.9c19-5.8,26.5-23.2,15.2-37.7l-64.5-104.4l68.3-104.4
		c7.5-11.6,0-29-19-37.7c-19-5.8-41.7,0-49.3,11.6l-75.9,116c-3.8,8.7-3.8,17.4,0,26.1L340.3,729.3z"/>
	<path d="M688.6,604.6L620.3,709c-7.6,14.5,0,31.9,15.2,37.7h15.2c15.2,0,26.5-5.8,34.1-17.4l75.9-116c3.8-8.7,3.8-17.4,0-26.1
		l-75.9-113.1c-7.6-14.5-30.3-20.3-49.3-11.6c-19,5.8-26.5,23.2-15.2,37.7L688.6,604.6z"/>
	<path d="M471.8,746.7h7.6c19,0,34.1-8.7,37.9-23.2l60.7-232c3.9-14.5-11.3-31.9-30.3-34.8c-19-2.9-41.7,5.8-45.5,23.2l-60.7,232
		C437.7,726.4,449.1,743.8,471.8,746.7z"/>
</g>
</svg>
