<?xml version="1.0" encoding="utf-8"?>
<!-- Generator: Adobe Illustrator 21.1.0, SVG Export Plug-In . SVG Version: 6.00 Build 0)  -->
<svg version="1.1" id="图层_1" xmlns="http://www.w3.org/2000/svg" xmlns:xlink="http://www.w3.org/1999/xlink" x="0px" y="0px"
	 viewBox="0 0 1024 1024" style="enable-background:new 0 0 1024 1024;" xml:space="preserve">
<g>
	<path d="M720.3,369H440.9v-72.1L296.7,405l144.2,108.1V441h279.4c4.9,0.1,9-4,9-9v-54C729.3,373,725.2,369,720.3,369z"/>
	<path d="M585.1,585.3H305.7c-4.9-0.1-9,4-9,9v54.1c0,5,4.1,9,9,9h279.4v72.1l144.2-108.1L585.1,513.2V585.3z"/>
	<path d="M828,98.2H198c-55,0-100,45-100,100v630c0,55,45,100,100,100h630c55,0,100-45,100-100v-630C928,143.2,883,98.2,828,98.2z
		 M844,784.2c0,33-27,60-60,60H242c-33,0-60-27-60-60v-542c0-33,27-60,60-60h542c33,0,60,27,60,60V784.2z"/>
</g>
</svg>
