<?xml version="1.0" encoding="utf-8"?>
<!-- Generator: Adobe Illustrator 21.1.0, SVG Export Plug-In . SVG Version: 6.00 Build 0)  -->
<svg version="1.1" id="图层_1" xmlns="http://www.w3.org/2000/svg" xmlns:xlink="http://www.w3.org/1999/xlink" x="0px" y="0px"
	 viewBox="0 0 1024 1024" style="enable-background:new 0 0 1024 1024;" xml:space="preserve">
<g id="图层_1_1_">
</g>
<g>
	<path d="M848,98.1H178.1c-44,0-80,36-80,80V848c0,44,36,80,80,80h143.8v-84h-99.8c-22,0-40-18-40-40V222.1c0-22,18-40,40-40H804
		c22,0,40,18,40,40V320h84V178.1C928,134.1,892,98.1,848,98.1z"/>
	<polygon points="652.8,530.5 567.9,530.5 567.9,644.4 567.9,729.4 652.8,729.4 707.2,729.4 707.2,644.4 652.8,644.4 	"/>
	<path d="M868.4,509l59.4-59.4l-16.3-16.3l0,0l-59.4-59.4l0,0l-16.2-16.2L776.5,417l16.2,16.2l-10.1,10.1
		c-46.5-37.1-105.4-59.3-169.5-59.3c-150.2,0-272,121.8-272,272s121.8,272,272,272s272-121.8,272-272c0-55.8-16.8-107.7-45.6-150.8
		l12.6-12.6L868.4,509z M613.1,849.1c-106.6,0-193-86.4-193-193s86.4-193,193-193s193,86.4,193,193S719.6,849.1,613.1,849.1z"/>
</g>
</svg>
