<?xml version="1.0" encoding="utf-8"?>
<!-- Generator: Adobe Illustrator 21.1.0, SVG Export Plug-In . SVG Version: 6.00 Build 0)  -->
<svg version="1.1" id="图层_1" xmlns="http://www.w3.org/2000/svg" xmlns:xlink="http://www.w3.org/1999/xlink" x="0px" y="0px"
	 viewBox="0 0 1024 1024" style="enable-background:new 0 0 1024 1024;" xml:space="preserve">
<g id="图层_1_1_">
</g>
<g>
	<path d="M847.1,98.2H177.3c-44,0-80,36-80,80v669.9c0,44,36,80,80,80H321v-84h-99.8c-22,0-40-18-40-40V222.2c0-22,18-40,40-40
		h581.9c22,0,40,18,40,40V320h84V178.2C927.1,134.2,891.1,98.2,847.1,98.2z"/>
	<path d="M653.7,383.3c-150.5,0-272.5,122-272.5,272.5s122,272.5,272.5,272.5s272.5-122,272.5-272.5S804.2,383.3,653.7,383.3z
		 M653.7,844.3c-104.1,0-188.5-84.4-188.5-188.5s84.4-188.5,188.5-188.5s188.5,84.4,188.5,188.5S757.8,844.3,653.7,844.3z"/>
	<path d="M732.9,617.5h-38.5V579c0-23.1-18.9-42-42-42s-42,18.9-42,42v38.5h-38.5c-23.1,0-42,18.9-42,42s18.9,42,42,42h38.5V740
		c0,23.1,18.9,42,42,42s42-18.9,42-42v-38.5h38.5c23.1,0,42-18.9,42-42S756,617.5,732.9,617.5z"/>
</g>
</svg>
