<?xml version="1.0" encoding="utf-8"?>
<!-- Generator: Adobe Illustrator 21.1.0, SVG Export Plug-In . SVG Version: 6.00 Build 0)  -->
<svg version="1.1" id="图层_1" xmlns="http://www.w3.org/2000/svg" xmlns:xlink="http://www.w3.org/1999/xlink" x="0px" y="0px"
	 viewBox="0 0 1024 1024" style="enable-background:new 0 0 1024 1024;" xml:space="preserve">
<g id="图层_1_1_">
</g>
<g>
	<path d="M915.7,395.6c-16.3-16.3-43.1-16.3-59.4,0L655.5,596.4L454.7,395.6c-16.3-16.3-43.1-16.3-59.4,0s-16.3,43.1,0,59.4
		l200.8,200.8L395.3,856.6c-16.3,16.4-16.3,43.1,0,59.4c16.3,16.3,43.1,16.3,59.4,0l200.8-200.8L856.3,916
		c16.4,16.4,43.1,16.4,59.4,0c16.3-16.3,16.3-43.1,0-59.4L714.9,655.8L915.7,455C932,438.7,932,411.9,915.7,395.6z"/>
	<path d="M848,98.1H178.1c-44,0-80,36-80,80V848c0,44,36,80,80,80h143.8v-84h-99.8c-22,0-40-18-40-40V222.1c0-22,18-40,40-40H804
		c22,0,40,18,40,40V320h84V178.1C928,134.1,892,98.1,848,98.1z"/>
</g>
</svg>
