<?xml version="1.0" encoding="utf-8"?>
<!-- Generator: Adobe Illustrator 21.1.0, SVG Export Plug-In . SVG Version: 6.00 Build 0)  -->
<svg version="1.1" id="图层_1" xmlns="http://www.w3.org/2000/svg" xmlns:xlink="http://www.w3.org/1999/xlink" x="0px" y="0px"
	 viewBox="0 0 1024 1024" style="enable-background:new 0 0 1024 1024;" xml:space="preserve">
<g id="图层_1_1_">
</g>
<path d="M829,247.5H494.1V143.6c0-9.1-10.7-13.8-17.4-7.6L307,292.3c-4.4,4.1-4.4,11.2,0,15.3L476.7,464c6.6,6.1,17.4,1.4,17.4-7.6
	V331.5H795c27.5,0,50,22.5,50,50v364c0,27.5-22.5,50-50,50H233c-27.5,0-50-22.5-50-50V489.1H99v290.4c0,55,45,100,100,100h630
	c55,0,100-45,100-100v-432C929,292.5,884,247.5,829,247.5z"/>
</svg>
