<?xml version="1.0" encoding="utf-8"?>
<!-- Generator: Adobe Illustrator 21.1.0, SVG Export Plug-In . SVG Version: 6.00 Build 0)  -->
<svg version="1.1" id="图层_1" xmlns="http://www.w3.org/2000/svg" xmlns:xlink="http://www.w3.org/1999/xlink" x="0px" y="0px"
	 viewBox="0 0 1024 1024" style="enable-background:new 0 0 1024 1024;" xml:space="preserve">
<g id="图层_1_1_">
</g>
<g>
	<path d="M846.3,95.6h-670c-44,0-80,36-80,80v670c0,44,36,80,80,80h670c44,0,80-36,80-80v-670C926.3,131.6,890.3,95.6,846.3,95.6z
		 M842.3,801.6c0,22-18,40-40,40h-582c-22,0-40-18-40-40v-582c0-22,18-40,40-40h582c22,0,40,18,40,40V801.6z"/>
	<path d="M692.9,329.1c-48.4-42.5-112.5-65.9-180.6-65.9c-68.2,0-132.3,23.4-180.6,65.9c-23.8,20.8-42.4,45.2-55.5,72.4
		c-13.6,28.4-20.5,58.4-20.5,89.5c0,36.4,9.9,72.5,28.6,104.7c16.4,28,39.5,53.1,67.3,73V744c0,6.5,3.5,12.5,9.1,15.8
		c2.8,1.6,6,2.4,9.1,2.4c3.1,0,6.3-0.8,9.1-2.4l79.8-46.1c17.6,3.3,35.7,5,53.7,5c68.2,0,132.3-23.4,180.6-65.9
		c23.8-20.8,42.4-45.2,55.5-72.4C762.1,552.1,769,522,769,491c0-31.1-6.9-61.2-20.6-89.5C735.3,374.4,716.7,350,692.9,329.1z
		 M512.3,655.7c-14.8,0-29.6-1.6-43.9-4.8c-3.6-0.8-7.5-0.2-10.7,1.7l-48.4,28.8v-45.6c0-5.2-2.6-10.1-6.8-13
		c-46.2-31.2-72.7-78.7-72.7-130.3c0-89.9,81.8-163.1,182.5-163.1c100.6,0,182.5,73.1,182.5,163.1S612.9,655.7,512.3,655.7z"/>
	<circle cx="414.6" cy="496.6" r="42"/>
	<circle cx="512" cy="496.6" r="42"/>
	<circle cx="609.4" cy="496.6" r="42"/>
</g>
</svg>
