<?xml version="1.0" encoding="utf-8"?>
<!-- Generator: Adobe Illustrator 21.1.0, SVG Export Plug-In . SVG Version: 6.00 Build 0)  -->
<svg version="1.1" id="图层_1" xmlns="http://www.w3.org/2000/svg" xmlns:xlink="http://www.w3.org/1999/xlink" x="0px" y="0px"
	 viewBox="0 0 1024 1024" style="enable-background:new 0 0 1024 1024;" xml:space="preserve">
<g id="图层_1_1_">
</g>
<g>
	<path d="M356.3,529.7l59.7,59.7c26.8-21.2,60.6-33.9,97.5-33.9c36.5,0,70,12.4,96.7,33.3l59.7-59.7
		c-42.1-35.9-96.7-57.6-156.4-57.6C453.4,471.4,398.5,493.4,356.3,529.7z"/>
	<path d="M258.3,431.3l59.4,59.4c50-50.1,119-81,195.4-81s145.4,31,195.4,81l59.4-59.4c-65.2-65.2-155.3-105.6-254.8-105.6
		S323.5,366.1,258.3,431.3z"/>
	<circle cx="513.1" cy="657.6" r="42"/>
	<path d="M848.1,97.7h-670c-44,0-80,36-80,80v670c0,44,36,80,80,80h670c44,0,80-36,80-80v-670C928.1,133.7,892.1,97.7,848.1,97.7z
		 M844.1,803.7c0,22-18,40-40,40h-582c-22,0-40-18-40-40v-582c0-22,18-40,40-40h582c22,0,40,18,40,40V803.7z"/>
</g>
</svg>
