<?xml version="1.0" encoding="utf-8"?>
<!-- Generator: Adobe Illustrator 21.1.0, SVG Export Plug-In . SVG Version: 6.00 Build 0)  -->
<svg version="1.1" id="图层_1" xmlns="http://www.w3.org/2000/svg" xmlns:xlink="http://www.w3.org/1999/xlink" x="0px" y="0px"
	 viewBox="0 0 1024 1024" style="enable-background:new 0 0 1024 1024;" xml:space="preserve">
<g id="图层_1_1_">
</g>
<path d="M938.5,153.8c-14.6-15.7-35.5-25.6-58.5-25.6h-60.1H204.1H144c-23.1,0-43.9,9.9-58.5,25.6C72.2,168.1,64,187.2,64,208.2v608
	c0,44,36,80,80,80h736c44,0,80-36,80-80v-4H836.5h-65.3H187.5c-22,0-40-18-40-40v-520c0-10.1,3.8-19.3,10-26.3l298,298
	c31.1,31.1,82,31.1,113.1,0l298-298c6.2,7.1,10,16.3,10,26.3v560.2H960V208.2C960,187.3,951.8,168.1,938.5,153.8z M540.3,407.8
	c-15.6,15.6-41,15.6-56.6,0L288.1,212.2h447.8L540.3,407.8z"/>
</svg>
