<?xml version="1.0" encoding="utf-8"?>
<!-- Generator: Adobe Illustrator 21.1.0, SVG Export Plug-In . SVG Version: 6.00 Build 0)  -->
<svg version="1.1" id="图层_1" xmlns="http://www.w3.org/2000/svg" xmlns:xlink="http://www.w3.org/1999/xlink" x="0px" y="0px"
	 viewBox="0 0 1024 1024" style="enable-background:new 0 0 1024 1024;" xml:space="preserve">
<g id="图层_1_1_">
</g>
<g>
	<path d="M907.4,676.4c-16.4-16.4-46.8-12.6-67.8,8.4l-46.5,46.5l-46.5-46.5c-21-21-51.4-24.8-67.8-8.4
		c-16.4,16.4-12.6,46.8,8.4,67.8l46.5,46.5l-46.5,46.5c-21,21-24.8,51.4-8.4,67.8c16.4,16.4,46.8,12.6,67.8-8.4l46.5-46.5l46.5,46.5
		c21,21,51.4,24.8,67.8,8.4c16.4-16.4,12.6-46.8-8.4-67.8l-46.5-46.5l46.5-46.5C920,723.2,923.8,692.8,907.4,676.4z"/>
	<path d="M824.7,97.5H202.2c-57.3,0-103.7,46.4-103.7,103.7v622.5c0,57.3,46.4,103.7,103.7,103.7h342.6c-13.3-26-22.7-54.2-27.6-84
		H242.5c-33,0-60-27-60-60v-542c0-33,27-60,60-60h542c33,0,60,27,60,60v274.9c29.8,4.8,58,14.3,84,27.6V201.2
		C928.5,143.9,882,97.5,824.7,97.5z"/>
	<path d="M558.9,440.5c28.6,0,51.9-18.8,51.9-42s-23.2-42-51.9-42H351.4c-28.6,0-51.9,18.8-51.9,42s23.2,42,51.9,42H558.9z"/>
	<path d="M351.4,610.1h311.2c28.7,0,51.9-18.8,51.9-42s-23.2-42-51.9-42H351.4c-28.6,0-51.9,18.8-51.9,42S322.7,610.1,351.4,610.1z"
		/>
</g>
</svg>
