<?xml version="1.0" encoding="utf-8"?>
<!-- Generator: Adobe Illustrator 21.1.0, SVG Export Plug-In . SVG Version: 6.00 Build 0)  -->
<svg version="1.1" id="图层_1" xmlns="http://www.w3.org/2000/svg" xmlns:xlink="http://www.w3.org/1999/xlink" x="0px" y="0px"
	 viewBox="0 0 1024 1024" style="enable-background:new 0 0 1024 1024;" xml:space="preserve">
<g id="图层_1_1_">
</g>
<path d="M65,270.7c0,42.3,33.7,52.7,59.7,52c0,0,33.9,166.3,206.8,227.3c0,0,27.9,114,66.9,147l18,144h-49.1
	c0,0-48.1,25.3-23.5,54.6l112.6-2.6c0,0,12-5,12-15s0-290,0-290l13.8-2c0,0,164.5,92,292.8,12c0,0,49.3,84,67.3,96v148l-56,1
	c0,0-41.8,30.3-19.9,52.6h111.9c0,0,11.4-5.6,11.2-18.6l22.8-178l-16.7-256c0,0,23.7,18,30.7,48s6,113,6,113s14,20,27-4V473.3
	c0,0-16.2-58.3-71.6-68.3l-63.4-114l-62.9-107c0,0-51.5-48-86.3,0s-55.4,82-55.4,82l-11.2,18l-57-99c0,0-55.1-48-87.6,2
	S355.3,367,355.3,367s-52.5-24-50.8-101c0,0,3.2-34,0-40l18.7-28c0,0,1.5-20-18.7-17l-19.2,16c0,0-36.7-38-80.4-23
	c0,0-38.3,16.2-54.5,45.6h-43.2C107.3,219.6,65,228.3,65,270.7z M182.2,252.8c0-23.2,18.8-42,42-42s42,18.8,42,42s-18.8,42-42,42
	S182.2,275.9,182.2,252.8z"/>
</svg>
